<mxfile host="app.diagrams.net" agent="Mozilla/5.0 (Windows NT 10.0; Win64; x64) AppleWebKit/537.36 (KHTML, like Gecko) Chrome/119.0.0.0 Safari/537.36" version="24.7.6">
  <diagram name="Page-1" id="siWEbojORk4NecV2sOhI">
    <mxGraphModel dx="3475" dy="2545" grid="1" gridSize="10" guides="1" tooltips="1" connect="1" arrows="1" fold="1" page="1" pageScale="1" pageWidth="850" pageHeight="1100" math="0" shadow="0">
      <root>
        <mxCell id="0" />
        <mxCell id="1" parent="0" />
        <mxCell id="3fPp0-dOjymZpEGMUhcJ-361" value="«component»&lt;br&gt;&lt;b&gt;:PlayerStats&lt;/b&gt;" style="html=1;dropTarget=0;whiteSpace=wrap;" vertex="1" parent="1">
          <mxGeometry x="-448.81491329479775" y="191" width="134.0023121387283" height="67" as="geometry" />
        </mxCell>
        <mxCell id="3fPp0-dOjymZpEGMUhcJ-362" value="" style="shape=module;jettyWidth=8;jettyHeight=4;" vertex="1" parent="3fPp0-dOjymZpEGMUhcJ-361">
          <mxGeometry x="1" width="12" height="20" relative="1" as="geometry">
            <mxPoint x="-19" y="7" as="offset" />
          </mxGeometry>
        </mxCell>
        <mxCell id="3fPp0-dOjymZpEGMUhcJ-19" value="&lt;b&gt;&lt;font style=&quot;font-size: 22px;&quot;&gt;Model&lt;/font&gt;&lt;/b&gt;" style="shape=umlFrame;whiteSpace=wrap;html=1;pointerEvents=0;width=140;height=60;" vertex="1" parent="1">
          <mxGeometry x="-530" y="-70" width="960" height="650" as="geometry" />
        </mxCell>
        <mxCell id="3fPp0-dOjymZpEGMUhcJ-20" value="&lt;b&gt;&lt;font style=&quot;font-size: 16px;&quot;&gt;View&lt;/font&gt;&lt;/b&gt;" style="shape=umlFrame;whiteSpace=wrap;html=1;pointerEvents=0;" vertex="1" parent="1">
          <mxGeometry x="679" y="-90" width="320" height="750" as="geometry" />
        </mxCell>
        <mxCell id="3fPp0-dOjymZpEGMUhcJ-322" style="edgeStyle=orthogonalEdgeStyle;rounded=0;orthogonalLoop=1;jettySize=auto;html=1;entryX=0;entryY=0.5;entryDx=0;entryDy=0;endArrow=none;endFill=0;exitX=1;exitY=0.5;exitDx=0;exitDy=0;exitPerimeter=0;" edge="1" parent="1" source="3fPp0-dOjymZpEGMUhcJ-38" target="3fPp0-dOjymZpEGMUhcJ-269">
          <mxGeometry relative="1" as="geometry">
            <Array as="points">
              <mxPoint x="-363" y="15" />
            </Array>
          </mxGeometry>
        </mxCell>
        <mxCell id="3fPp0-dOjymZpEGMUhcJ-58" value="" style="group" vertex="1" connectable="0" parent="1">
          <mxGeometry x="750" y="-70" width="173" height="80" as="geometry" />
        </mxCell>
        <mxCell id="3fPp0-dOjymZpEGMUhcJ-39" value="«component»&lt;br&gt;&lt;b&gt;:Start Screen&lt;/b&gt;" style="html=1;dropTarget=0;whiteSpace=wrap;" vertex="1" parent="3fPp0-dOjymZpEGMUhcJ-58">
          <mxGeometry x="6" width="160" height="80" as="geometry" />
        </mxCell>
        <mxCell id="3fPp0-dOjymZpEGMUhcJ-40" value="" style="shape=module;jettyWidth=8;jettyHeight=4;" vertex="1" parent="3fPp0-dOjymZpEGMUhcJ-39">
          <mxGeometry x="1" width="20" height="20" relative="1" as="geometry">
            <mxPoint x="-27" y="7" as="offset" />
          </mxGeometry>
        </mxCell>
        <mxCell id="3fPp0-dOjymZpEGMUhcJ-56" value="" style="whiteSpace=wrap;html=1;aspect=fixed;imageWidth=10;imageHeight=10;" vertex="1" parent="3fPp0-dOjymZpEGMUhcJ-58">
          <mxGeometry y="34" width="12" height="12" as="geometry" />
        </mxCell>
        <mxCell id="3fPp0-dOjymZpEGMUhcJ-57" value="" style="whiteSpace=wrap;html=1;aspect=fixed;imageWidth=10;imageHeight=10;" vertex="1" parent="3fPp0-dOjymZpEGMUhcJ-58">
          <mxGeometry x="161" y="34" width="12" height="12" as="geometry" />
        </mxCell>
        <mxCell id="3fPp0-dOjymZpEGMUhcJ-59" value="" style="group" vertex="1" connectable="0" parent="1">
          <mxGeometry x="750" y="20" width="173" height="80" as="geometry" />
        </mxCell>
        <mxCell id="3fPp0-dOjymZpEGMUhcJ-60" value="«component»&lt;br&gt;&lt;b&gt;:HUD GUI&lt;/b&gt;" style="html=1;dropTarget=0;whiteSpace=wrap;" vertex="1" parent="3fPp0-dOjymZpEGMUhcJ-59">
          <mxGeometry x="6" width="160" height="80" as="geometry" />
        </mxCell>
        <mxCell id="3fPp0-dOjymZpEGMUhcJ-61" value="" style="shape=module;jettyWidth=8;jettyHeight=4;" vertex="1" parent="3fPp0-dOjymZpEGMUhcJ-60">
          <mxGeometry x="1" width="20" height="20" relative="1" as="geometry">
            <mxPoint x="-27" y="7" as="offset" />
          </mxGeometry>
        </mxCell>
        <mxCell id="3fPp0-dOjymZpEGMUhcJ-62" value="" style="whiteSpace=wrap;html=1;aspect=fixed;imageWidth=10;imageHeight=10;" vertex="1" parent="3fPp0-dOjymZpEGMUhcJ-59">
          <mxGeometry y="34" width="12" height="12" as="geometry" />
        </mxCell>
        <mxCell id="3fPp0-dOjymZpEGMUhcJ-63" value="" style="whiteSpace=wrap;html=1;aspect=fixed;imageWidth=10;imageHeight=10;" vertex="1" parent="3fPp0-dOjymZpEGMUhcJ-59">
          <mxGeometry x="161" y="34" width="12" height="12" as="geometry" />
        </mxCell>
        <mxCell id="3fPp0-dOjymZpEGMUhcJ-64" value="" style="group" vertex="1" connectable="0" parent="1">
          <mxGeometry x="750" y="110" width="173" height="80" as="geometry" />
        </mxCell>
        <mxCell id="3fPp0-dOjymZpEGMUhcJ-65" value="«component»&lt;br&gt;&lt;b&gt;:Death Screen&lt;/b&gt;" style="html=1;dropTarget=0;whiteSpace=wrap;" vertex="1" parent="3fPp0-dOjymZpEGMUhcJ-64">
          <mxGeometry x="6" width="160" height="80" as="geometry" />
        </mxCell>
        <mxCell id="3fPp0-dOjymZpEGMUhcJ-66" value="" style="shape=module;jettyWidth=8;jettyHeight=4;" vertex="1" parent="3fPp0-dOjymZpEGMUhcJ-65">
          <mxGeometry x="1" width="20" height="20" relative="1" as="geometry">
            <mxPoint x="-27" y="7" as="offset" />
          </mxGeometry>
        </mxCell>
        <mxCell id="3fPp0-dOjymZpEGMUhcJ-67" value="" style="whiteSpace=wrap;html=1;aspect=fixed;imageWidth=10;imageHeight=10;" vertex="1" parent="3fPp0-dOjymZpEGMUhcJ-64">
          <mxGeometry y="34" width="12" height="12" as="geometry" />
        </mxCell>
        <mxCell id="3fPp0-dOjymZpEGMUhcJ-68" value="" style="whiteSpace=wrap;html=1;aspect=fixed;imageWidth=10;imageHeight=10;" vertex="1" parent="3fPp0-dOjymZpEGMUhcJ-64">
          <mxGeometry x="161" y="34" width="12" height="12" as="geometry" />
        </mxCell>
        <mxCell id="3fPp0-dOjymZpEGMUhcJ-69" value="" style="group" vertex="1" connectable="0" parent="1">
          <mxGeometry x="750" y="200" width="173" height="80" as="geometry" />
        </mxCell>
        <mxCell id="3fPp0-dOjymZpEGMUhcJ-70" value="«component»&lt;br&gt;&lt;b&gt;:Menu Screen&lt;/b&gt;" style="html=1;dropTarget=0;whiteSpace=wrap;" vertex="1" parent="3fPp0-dOjymZpEGMUhcJ-69">
          <mxGeometry x="6" width="160" height="80" as="geometry" />
        </mxCell>
        <mxCell id="3fPp0-dOjymZpEGMUhcJ-71" value="" style="shape=module;jettyWidth=8;jettyHeight=4;" vertex="1" parent="3fPp0-dOjymZpEGMUhcJ-70">
          <mxGeometry x="1" width="20" height="20" relative="1" as="geometry">
            <mxPoint x="-27" y="7" as="offset" />
          </mxGeometry>
        </mxCell>
        <mxCell id="3fPp0-dOjymZpEGMUhcJ-72" value="" style="whiteSpace=wrap;html=1;aspect=fixed;imageWidth=10;imageHeight=10;" vertex="1" parent="3fPp0-dOjymZpEGMUhcJ-69">
          <mxGeometry y="34" width="12" height="12" as="geometry" />
        </mxCell>
        <mxCell id="3fPp0-dOjymZpEGMUhcJ-73" value="" style="whiteSpace=wrap;html=1;aspect=fixed;imageWidth=10;imageHeight=10;" vertex="1" parent="3fPp0-dOjymZpEGMUhcJ-69">
          <mxGeometry x="161" y="34" width="12" height="12" as="geometry" />
        </mxCell>
        <mxCell id="3fPp0-dOjymZpEGMUhcJ-74" value="" style="group" vertex="1" connectable="0" parent="1">
          <mxGeometry x="750" y="290" width="173" height="80" as="geometry" />
        </mxCell>
        <mxCell id="3fPp0-dOjymZpEGMUhcJ-75" value="«component»&lt;br&gt;&lt;b&gt;:Settings Screen&lt;/b&gt;" style="html=1;dropTarget=0;whiteSpace=wrap;" vertex="1" parent="3fPp0-dOjymZpEGMUhcJ-74">
          <mxGeometry x="6" width="160" height="80" as="geometry" />
        </mxCell>
        <mxCell id="3fPp0-dOjymZpEGMUhcJ-76" value="" style="shape=module;jettyWidth=8;jettyHeight=4;" vertex="1" parent="3fPp0-dOjymZpEGMUhcJ-75">
          <mxGeometry x="1" width="20" height="20" relative="1" as="geometry">
            <mxPoint x="-27" y="7" as="offset" />
          </mxGeometry>
        </mxCell>
        <mxCell id="3fPp0-dOjymZpEGMUhcJ-77" value="" style="whiteSpace=wrap;html=1;aspect=fixed;imageWidth=10;imageHeight=10;" vertex="1" parent="3fPp0-dOjymZpEGMUhcJ-74">
          <mxGeometry y="34" width="12" height="12" as="geometry" />
        </mxCell>
        <mxCell id="3fPp0-dOjymZpEGMUhcJ-78" value="" style="whiteSpace=wrap;html=1;aspect=fixed;imageWidth=10;imageHeight=10;" vertex="1" parent="3fPp0-dOjymZpEGMUhcJ-74">
          <mxGeometry x="161" y="34" width="12" height="12" as="geometry" />
        </mxCell>
        <mxCell id="3fPp0-dOjymZpEGMUhcJ-79" value="" style="group" vertex="1" connectable="0" parent="1">
          <mxGeometry x="750" y="380" width="173" height="80" as="geometry" />
        </mxCell>
        <mxCell id="3fPp0-dOjymZpEGMUhcJ-80" value="«component»&lt;br&gt;&lt;b&gt;:Dialogue Textbox&lt;/b&gt;" style="html=1;dropTarget=0;whiteSpace=wrap;" vertex="1" parent="3fPp0-dOjymZpEGMUhcJ-79">
          <mxGeometry x="6" width="160" height="80" as="geometry" />
        </mxCell>
        <mxCell id="3fPp0-dOjymZpEGMUhcJ-81" value="" style="shape=module;jettyWidth=8;jettyHeight=4;" vertex="1" parent="3fPp0-dOjymZpEGMUhcJ-80">
          <mxGeometry x="1" width="20" height="20" relative="1" as="geometry">
            <mxPoint x="-27" y="7" as="offset" />
          </mxGeometry>
        </mxCell>
        <mxCell id="3fPp0-dOjymZpEGMUhcJ-82" value="" style="whiteSpace=wrap;html=1;aspect=fixed;imageWidth=10;imageHeight=10;" vertex="1" parent="3fPp0-dOjymZpEGMUhcJ-79">
          <mxGeometry y="34" width="12" height="12" as="geometry" />
        </mxCell>
        <mxCell id="3fPp0-dOjymZpEGMUhcJ-83" value="" style="whiteSpace=wrap;html=1;aspect=fixed;imageWidth=10;imageHeight=10;" vertex="1" parent="3fPp0-dOjymZpEGMUhcJ-79">
          <mxGeometry x="161" y="34" width="12" height="12" as="geometry" />
        </mxCell>
        <mxCell id="3fPp0-dOjymZpEGMUhcJ-84" value="" style="group" vertex="1" connectable="0" parent="1">
          <mxGeometry x="750" y="470" width="173" height="80" as="geometry" />
        </mxCell>
        <mxCell id="3fPp0-dOjymZpEGMUhcJ-85" value="«component»&lt;br&gt;&lt;b&gt;:Shop Screen&lt;/b&gt;" style="html=1;dropTarget=0;whiteSpace=wrap;" vertex="1" parent="3fPp0-dOjymZpEGMUhcJ-84">
          <mxGeometry x="6" width="160" height="80" as="geometry" />
        </mxCell>
        <mxCell id="3fPp0-dOjymZpEGMUhcJ-86" value="" style="shape=module;jettyWidth=8;jettyHeight=4;" vertex="1" parent="3fPp0-dOjymZpEGMUhcJ-85">
          <mxGeometry x="1" width="20" height="20" relative="1" as="geometry">
            <mxPoint x="-27" y="7" as="offset" />
          </mxGeometry>
        </mxCell>
        <mxCell id="3fPp0-dOjymZpEGMUhcJ-87" value="" style="whiteSpace=wrap;html=1;aspect=fixed;imageWidth=10;imageHeight=10;" vertex="1" parent="3fPp0-dOjymZpEGMUhcJ-84">
          <mxGeometry y="34" width="12" height="12" as="geometry" />
        </mxCell>
        <mxCell id="3fPp0-dOjymZpEGMUhcJ-88" value="" style="whiteSpace=wrap;html=1;aspect=fixed;imageWidth=10;imageHeight=10;" vertex="1" parent="3fPp0-dOjymZpEGMUhcJ-84">
          <mxGeometry x="161" y="34" width="12" height="12" as="geometry" />
        </mxCell>
        <mxCell id="3fPp0-dOjymZpEGMUhcJ-89" value="" style="group" vertex="1" connectable="0" parent="1">
          <mxGeometry x="750" y="560" width="173" height="80" as="geometry" />
        </mxCell>
        <mxCell id="3fPp0-dOjymZpEGMUhcJ-90" value="«component»&lt;br&gt;&lt;b&gt;:Load/Save Screen&lt;/b&gt;" style="html=1;dropTarget=0;whiteSpace=wrap;" vertex="1" parent="3fPp0-dOjymZpEGMUhcJ-89">
          <mxGeometry x="6" width="160" height="80" as="geometry" />
        </mxCell>
        <mxCell id="3fPp0-dOjymZpEGMUhcJ-91" value="" style="shape=module;jettyWidth=8;jettyHeight=4;" vertex="1" parent="3fPp0-dOjymZpEGMUhcJ-90">
          <mxGeometry x="1" width="20" height="20" relative="1" as="geometry">
            <mxPoint x="-27" y="7" as="offset" />
          </mxGeometry>
        </mxCell>
        <mxCell id="3fPp0-dOjymZpEGMUhcJ-92" value="" style="whiteSpace=wrap;html=1;aspect=fixed;imageWidth=10;imageHeight=10;" vertex="1" parent="3fPp0-dOjymZpEGMUhcJ-89">
          <mxGeometry y="34" width="12" height="12" as="geometry" />
        </mxCell>
        <mxCell id="3fPp0-dOjymZpEGMUhcJ-93" value="" style="whiteSpace=wrap;html=1;aspect=fixed;imageWidth=10;imageHeight=10;" vertex="1" parent="3fPp0-dOjymZpEGMUhcJ-89">
          <mxGeometry x="161" y="34" width="12" height="12" as="geometry" />
        </mxCell>
        <mxCell id="3fPp0-dOjymZpEGMUhcJ-145" style="edgeStyle=orthogonalEdgeStyle;rounded=0;orthogonalLoop=1;jettySize=auto;html=1;entryX=1;entryY=0.5;entryDx=0;entryDy=0;endArrow=none;endFill=0;" edge="1" parent="1" source="3fPp0-dOjymZpEGMUhcJ-243" target="3fPp0-dOjymZpEGMUhcJ-105">
          <mxGeometry relative="1" as="geometry">
            <mxPoint x="710" y="-30" as="sourcePoint" />
            <Array as="points">
              <mxPoint x="686" y="-30" />
            </Array>
          </mxGeometry>
        </mxCell>
        <mxCell id="3fPp0-dOjymZpEGMUhcJ-146" style="edgeStyle=orthogonalEdgeStyle;rounded=0;orthogonalLoop=1;jettySize=auto;html=1;entryX=0;entryY=0.5;entryDx=0;entryDy=0;endArrow=none;endFill=0;exitX=1.103;exitY=0.504;exitDx=0;exitDy=0;exitPerimeter=0;" edge="1" parent="1" source="3fPp0-dOjymZpEGMUhcJ-243" target="3fPp0-dOjymZpEGMUhcJ-56">
          <mxGeometry relative="1" as="geometry">
            <mxPoint x="724.0000000000005" y="-30" as="sourcePoint" />
          </mxGeometry>
        </mxCell>
        <mxCell id="3fPp0-dOjymZpEGMUhcJ-495" style="edgeStyle=orthogonalEdgeStyle;rounded=0;orthogonalLoop=1;jettySize=auto;html=1;endArrow=none;endFill=0;" edge="1" parent="1" source="3fPp0-dOjymZpEGMUhcJ-105" target="3fPp0-dOjymZpEGMUhcJ-487">
          <mxGeometry relative="1" as="geometry" />
        </mxCell>
        <mxCell id="3fPp0-dOjymZpEGMUhcJ-105" value="" style="whiteSpace=wrap;html=1;aspect=fixed;imageWidth=10;imageHeight=10;" vertex="1" parent="1">
          <mxGeometry x="674" y="-37" width="12" height="12" as="geometry" />
        </mxCell>
        <mxCell id="3fPp0-dOjymZpEGMUhcJ-106" value="" style="whiteSpace=wrap;html=1;aspect=fixed;imageWidth=10;imageHeight=10;" vertex="1" parent="1">
          <mxGeometry x="674" y="54" width="12" height="12" as="geometry" />
        </mxCell>
        <mxCell id="3fPp0-dOjymZpEGMUhcJ-107" value="" style="whiteSpace=wrap;html=1;aspect=fixed;imageWidth=10;imageHeight=10;" vertex="1" parent="1">
          <mxGeometry x="674" y="144" width="12" height="12" as="geometry" />
        </mxCell>
        <mxCell id="3fPp0-dOjymZpEGMUhcJ-498" style="edgeStyle=orthogonalEdgeStyle;rounded=0;orthogonalLoop=1;jettySize=auto;html=1;endArrow=none;endFill=0;" edge="1" parent="1" source="3fPp0-dOjymZpEGMUhcJ-108">
          <mxGeometry relative="1" as="geometry">
            <mxPoint x="660" y="241" as="targetPoint" />
          </mxGeometry>
        </mxCell>
        <mxCell id="3fPp0-dOjymZpEGMUhcJ-108" value="" style="whiteSpace=wrap;html=1;aspect=fixed;imageWidth=10;imageHeight=10;" vertex="1" parent="1">
          <mxGeometry x="674" y="235" width="12" height="12" as="geometry" />
        </mxCell>
        <mxCell id="3fPp0-dOjymZpEGMUhcJ-109" value="" style="whiteSpace=wrap;html=1;aspect=fixed;imageWidth=10;imageHeight=10;" vertex="1" parent="1">
          <mxGeometry x="674" y="323.5" width="12" height="12" as="geometry" />
        </mxCell>
        <mxCell id="3fPp0-dOjymZpEGMUhcJ-500" style="edgeStyle=orthogonalEdgeStyle;rounded=0;orthogonalLoop=1;jettySize=auto;html=1;endArrow=none;endFill=0;" edge="1" parent="1" source="3fPp0-dOjymZpEGMUhcJ-110">
          <mxGeometry relative="1" as="geometry">
            <mxPoint x="660" y="419.5" as="targetPoint" />
          </mxGeometry>
        </mxCell>
        <mxCell id="3fPp0-dOjymZpEGMUhcJ-110" value="" style="whiteSpace=wrap;html=1;aspect=fixed;imageWidth=10;imageHeight=10;" vertex="1" parent="1">
          <mxGeometry x="674" y="413.5" width="12" height="12" as="geometry" />
        </mxCell>
        <mxCell id="3fPp0-dOjymZpEGMUhcJ-501" style="edgeStyle=orthogonalEdgeStyle;rounded=0;orthogonalLoop=1;jettySize=auto;html=1;endArrow=none;endFill=0;" edge="1" parent="1" source="3fPp0-dOjymZpEGMUhcJ-111">
          <mxGeometry relative="1" as="geometry">
            <mxPoint x="660" y="510.4999999999998" as="targetPoint" />
          </mxGeometry>
        </mxCell>
        <mxCell id="3fPp0-dOjymZpEGMUhcJ-111" value="" style="whiteSpace=wrap;html=1;aspect=fixed;imageWidth=10;imageHeight=10;" vertex="1" parent="1">
          <mxGeometry x="674" y="504.5" width="12" height="12" as="geometry" />
        </mxCell>
        <mxCell id="3fPp0-dOjymZpEGMUhcJ-112" value="" style="whiteSpace=wrap;html=1;aspect=fixed;imageWidth=10;imageHeight=10;" vertex="1" parent="1">
          <mxGeometry x="674" y="594" width="12" height="12" as="geometry" />
        </mxCell>
        <mxCell id="3fPp0-dOjymZpEGMUhcJ-195" style="edgeStyle=orthogonalEdgeStyle;rounded=0;orthogonalLoop=1;jettySize=auto;html=1;endArrow=none;endFill=0;" edge="1" parent="1" source="3fPp0-dOjymZpEGMUhcJ-113">
          <mxGeometry relative="1" as="geometry">
            <mxPoint x="1110" y="120" as="targetPoint" />
          </mxGeometry>
        </mxCell>
        <mxCell id="3fPp0-dOjymZpEGMUhcJ-113" value="" style="whiteSpace=wrap;html=1;aspect=fixed;imageWidth=10;imageHeight=10;" vertex="1" parent="1">
          <mxGeometry x="993" y="-37" width="12" height="12" as="geometry" />
        </mxCell>
        <mxCell id="3fPp0-dOjymZpEGMUhcJ-196" style="edgeStyle=orthogonalEdgeStyle;rounded=0;orthogonalLoop=1;jettySize=auto;html=1;endArrow=none;endFill=0;" edge="1" parent="1" source="3fPp0-dOjymZpEGMUhcJ-114">
          <mxGeometry relative="1" as="geometry">
            <mxPoint x="1110" y="120" as="targetPoint" />
          </mxGeometry>
        </mxCell>
        <mxCell id="3fPp0-dOjymZpEGMUhcJ-114" value="" style="whiteSpace=wrap;html=1;aspect=fixed;imageWidth=10;imageHeight=10;" vertex="1" parent="1">
          <mxGeometry x="993" y="54" width="12" height="12" as="geometry" />
        </mxCell>
        <mxCell id="3fPp0-dOjymZpEGMUhcJ-197" style="edgeStyle=orthogonalEdgeStyle;rounded=0;orthogonalLoop=1;jettySize=auto;html=1;endArrow=none;endFill=0;" edge="1" parent="1" source="3fPp0-dOjymZpEGMUhcJ-115">
          <mxGeometry relative="1" as="geometry">
            <mxPoint x="1110" y="120" as="targetPoint" />
          </mxGeometry>
        </mxCell>
        <mxCell id="3fPp0-dOjymZpEGMUhcJ-115" value="" style="whiteSpace=wrap;html=1;aspect=fixed;imageWidth=10;imageHeight=10;" vertex="1" parent="1">
          <mxGeometry x="993" y="144" width="12" height="12" as="geometry" />
        </mxCell>
        <mxCell id="3fPp0-dOjymZpEGMUhcJ-198" style="edgeStyle=orthogonalEdgeStyle;rounded=0;orthogonalLoop=1;jettySize=auto;html=1;endArrow=none;endFill=0;" edge="1" parent="1" source="3fPp0-dOjymZpEGMUhcJ-116">
          <mxGeometry relative="1" as="geometry">
            <mxPoint x="1110" y="150" as="targetPoint" />
          </mxGeometry>
        </mxCell>
        <mxCell id="3fPp0-dOjymZpEGMUhcJ-116" value="" style="whiteSpace=wrap;html=1;aspect=fixed;imageWidth=10;imageHeight=10;" vertex="1" parent="1">
          <mxGeometry x="993" y="235" width="12" height="12" as="geometry" />
        </mxCell>
        <mxCell id="3fPp0-dOjymZpEGMUhcJ-199" style="edgeStyle=orthogonalEdgeStyle;rounded=0;orthogonalLoop=1;jettySize=auto;html=1;exitX=1;exitY=0.5;exitDx=0;exitDy=0;endArrow=none;endFill=0;" edge="1" parent="1" source="3fPp0-dOjymZpEGMUhcJ-117">
          <mxGeometry relative="1" as="geometry">
            <mxPoint x="1110" y="240" as="targetPoint" />
          </mxGeometry>
        </mxCell>
        <mxCell id="3fPp0-dOjymZpEGMUhcJ-117" value="" style="whiteSpace=wrap;html=1;aspect=fixed;imageWidth=10;imageHeight=10;" vertex="1" parent="1">
          <mxGeometry x="993" y="323.5" width="12" height="12" as="geometry" />
        </mxCell>
        <mxCell id="3fPp0-dOjymZpEGMUhcJ-200" style="edgeStyle=orthogonalEdgeStyle;rounded=0;orthogonalLoop=1;jettySize=auto;html=1;endArrow=none;endFill=0;" edge="1" parent="1" source="3fPp0-dOjymZpEGMUhcJ-118">
          <mxGeometry relative="1" as="geometry">
            <mxPoint x="1110" y="330" as="targetPoint" />
          </mxGeometry>
        </mxCell>
        <mxCell id="3fPp0-dOjymZpEGMUhcJ-118" value="" style="whiteSpace=wrap;html=1;aspect=fixed;imageWidth=10;imageHeight=10;" vertex="1" parent="1">
          <mxGeometry x="993" y="413.5" width="12" height="12" as="geometry" />
        </mxCell>
        <mxCell id="3fPp0-dOjymZpEGMUhcJ-201" style="edgeStyle=orthogonalEdgeStyle;rounded=0;orthogonalLoop=1;jettySize=auto;html=1;endArrow=none;endFill=0;" edge="1" parent="1" source="3fPp0-dOjymZpEGMUhcJ-119">
          <mxGeometry relative="1" as="geometry">
            <mxPoint x="1110" y="420" as="targetPoint" />
          </mxGeometry>
        </mxCell>
        <mxCell id="3fPp0-dOjymZpEGMUhcJ-119" value="" style="whiteSpace=wrap;html=1;aspect=fixed;imageWidth=10;imageHeight=10;" vertex="1" parent="1">
          <mxGeometry x="993" y="504.5" width="12" height="12" as="geometry" />
        </mxCell>
        <mxCell id="3fPp0-dOjymZpEGMUhcJ-202" style="edgeStyle=orthogonalEdgeStyle;rounded=0;orthogonalLoop=1;jettySize=auto;html=1;endArrow=none;endFill=0;" edge="1" parent="1" source="3fPp0-dOjymZpEGMUhcJ-120">
          <mxGeometry relative="1" as="geometry">
            <mxPoint x="1110" y="510" as="targetPoint" />
          </mxGeometry>
        </mxCell>
        <mxCell id="3fPp0-dOjymZpEGMUhcJ-120" value="" style="whiteSpace=wrap;html=1;aspect=fixed;imageWidth=10;imageHeight=10;" vertex="1" parent="1">
          <mxGeometry x="993" y="594" width="12" height="12" as="geometry" />
        </mxCell>
        <mxCell id="3fPp0-dOjymZpEGMUhcJ-147" style="edgeStyle=orthogonalEdgeStyle;rounded=0;orthogonalLoop=1;jettySize=auto;html=1;entryX=0.006;entryY=0.425;entryDx=0;entryDy=0;endArrow=none;endFill=0;entryPerimeter=0;exitX=1;exitY=0.5;exitDx=0;exitDy=0;exitPerimeter=0;" edge="1" parent="1" source="3fPp0-dOjymZpEGMUhcJ-244" target="3fPp0-dOjymZpEGMUhcJ-62">
          <mxGeometry relative="1" as="geometry">
            <mxPoint x="723.9998021341253" y="59.05263157894751" as="sourcePoint" />
          </mxGeometry>
        </mxCell>
        <mxCell id="3fPp0-dOjymZpEGMUhcJ-148" style="edgeStyle=orthogonalEdgeStyle;rounded=0;orthogonalLoop=1;jettySize=auto;html=1;entryX=1;entryY=0.5;entryDx=0;entryDy=0;endArrow=none;endFill=0;" edge="1" parent="1" target="3fPp0-dOjymZpEGMUhcJ-106">
          <mxGeometry relative="1" as="geometry">
            <mxPoint x="710.0001978658752" y="59.05263157894751" as="sourcePoint" />
          </mxGeometry>
        </mxCell>
        <mxCell id="3fPp0-dOjymZpEGMUhcJ-165" style="edgeStyle=orthogonalEdgeStyle;rounded=0;orthogonalLoop=1;jettySize=auto;html=1;entryX=1;entryY=0.5;entryDx=0;entryDy=0;endArrow=none;endFill=0;" edge="1" parent="1" source="3fPp0-dOjymZpEGMUhcJ-130" target="3fPp0-dOjymZpEGMUhcJ-57">
          <mxGeometry relative="1" as="geometry" />
        </mxCell>
        <mxCell id="3fPp0-dOjymZpEGMUhcJ-166" style="edgeStyle=orthogonalEdgeStyle;rounded=0;orthogonalLoop=1;jettySize=auto;html=1;entryX=0;entryY=0.583;entryDx=0;entryDy=0;endArrow=none;endFill=0;entryPerimeter=0;" edge="1" parent="1" source="3fPp0-dOjymZpEGMUhcJ-130" target="3fPp0-dOjymZpEGMUhcJ-113">
          <mxGeometry relative="1" as="geometry" />
        </mxCell>
        <mxCell id="3fPp0-dOjymZpEGMUhcJ-130" value="" style="ellipse;whiteSpace=wrap;html=1;aspect=fixed;" vertex="1" parent="1">
          <mxGeometry x="950" y="-37" width="14" height="14" as="geometry" />
        </mxCell>
        <mxCell id="3fPp0-dOjymZpEGMUhcJ-167" style="edgeStyle=orthogonalEdgeStyle;rounded=0;orthogonalLoop=1;jettySize=auto;html=1;entryX=0.969;entryY=0.42;entryDx=0;entryDy=0;endArrow=none;endFill=0;entryPerimeter=0;" edge="1" parent="1" source="3fPp0-dOjymZpEGMUhcJ-131" target="3fPp0-dOjymZpEGMUhcJ-63">
          <mxGeometry relative="1" as="geometry" />
        </mxCell>
        <mxCell id="3fPp0-dOjymZpEGMUhcJ-168" style="edgeStyle=orthogonalEdgeStyle;rounded=0;orthogonalLoop=1;jettySize=auto;html=1;endArrow=none;endFill=0;entryX=0.012;entryY=0.401;entryDx=0;entryDy=0;entryPerimeter=0;" edge="1" parent="1" source="3fPp0-dOjymZpEGMUhcJ-131" target="3fPp0-dOjymZpEGMUhcJ-114">
          <mxGeometry relative="1" as="geometry">
            <mxPoint x="990" y="59" as="targetPoint" />
          </mxGeometry>
        </mxCell>
        <mxCell id="3fPp0-dOjymZpEGMUhcJ-131" value="" style="ellipse;whiteSpace=wrap;html=1;aspect=fixed;" vertex="1" parent="1">
          <mxGeometry x="950" y="52" width="14" height="14" as="geometry" />
        </mxCell>
        <mxCell id="3fPp0-dOjymZpEGMUhcJ-149" style="edgeStyle=orthogonalEdgeStyle;rounded=0;orthogonalLoop=1;jettySize=auto;html=1;entryX=1;entryY=0.609;entryDx=0;entryDy=0;endArrow=none;endFill=0;entryPerimeter=0;" edge="1" parent="1" target="3fPp0-dOjymZpEGMUhcJ-107">
          <mxGeometry relative="1" as="geometry">
            <mxPoint x="710.0001978658752" y="151.05263157894728" as="sourcePoint" />
          </mxGeometry>
        </mxCell>
        <mxCell id="3fPp0-dOjymZpEGMUhcJ-150" style="edgeStyle=orthogonalEdgeStyle;rounded=0;orthogonalLoop=1;jettySize=auto;html=1;entryX=-0.012;entryY=0.584;entryDx=0;entryDy=0;endArrow=none;endFill=0;entryPerimeter=0;exitX=1;exitY=0.5;exitDx=0;exitDy=0;exitPerimeter=0;" edge="1" parent="1" source="3fPp0-dOjymZpEGMUhcJ-245" target="3fPp0-dOjymZpEGMUhcJ-67">
          <mxGeometry relative="1" as="geometry">
            <mxPoint x="723.9998021341253" y="151.05263157894728" as="sourcePoint" />
          </mxGeometry>
        </mxCell>
        <mxCell id="3fPp0-dOjymZpEGMUhcJ-151" style="edgeStyle=orthogonalEdgeStyle;rounded=0;orthogonalLoop=1;jettySize=auto;html=1;endArrow=none;endFill=0;entryX=0.994;entryY=0.405;entryDx=0;entryDy=0;entryPerimeter=0;" edge="1" parent="1" target="3fPp0-dOjymZpEGMUhcJ-108">
          <mxGeometry relative="1" as="geometry">
            <mxPoint x="710" y="240" as="sourcePoint" />
          </mxGeometry>
        </mxCell>
        <mxCell id="3fPp0-dOjymZpEGMUhcJ-152" style="edgeStyle=orthogonalEdgeStyle;rounded=0;orthogonalLoop=1;jettySize=auto;html=1;entryX=0;entryY=0.5;entryDx=0;entryDy=0;endArrow=none;endFill=0;exitX=1;exitY=0.5;exitDx=0;exitDy=0;exitPerimeter=0;" edge="1" parent="1" source="3fPp0-dOjymZpEGMUhcJ-249" target="3fPp0-dOjymZpEGMUhcJ-72">
          <mxGeometry relative="1" as="geometry">
            <mxPoint x="724.0000000000005" y="240" as="sourcePoint" />
          </mxGeometry>
        </mxCell>
        <mxCell id="3fPp0-dOjymZpEGMUhcJ-169" style="edgeStyle=orthogonalEdgeStyle;rounded=0;orthogonalLoop=1;jettySize=auto;html=1;entryX=0.969;entryY=0.568;entryDx=0;entryDy=0;endArrow=none;endFill=0;entryPerimeter=0;" edge="1" parent="1" source="3fPp0-dOjymZpEGMUhcJ-134" target="3fPp0-dOjymZpEGMUhcJ-68">
          <mxGeometry relative="1" as="geometry" />
        </mxCell>
        <mxCell id="3fPp0-dOjymZpEGMUhcJ-134" value="" style="ellipse;whiteSpace=wrap;html=1;aspect=fixed;" vertex="1" parent="1">
          <mxGeometry x="950" y="144" width="14" height="14" as="geometry" />
        </mxCell>
        <mxCell id="3fPp0-dOjymZpEGMUhcJ-172" style="edgeStyle=orthogonalEdgeStyle;rounded=0;orthogonalLoop=1;jettySize=auto;html=1;entryX=1;entryY=0.5;entryDx=0;entryDy=0;endArrow=none;endFill=0;" edge="1" parent="1" source="3fPp0-dOjymZpEGMUhcJ-135" target="3fPp0-dOjymZpEGMUhcJ-73">
          <mxGeometry relative="1" as="geometry" />
        </mxCell>
        <mxCell id="3fPp0-dOjymZpEGMUhcJ-135" value="" style="ellipse;whiteSpace=wrap;html=1;aspect=fixed;" vertex="1" parent="1">
          <mxGeometry x="950" y="233" width="14" height="14" as="geometry" />
        </mxCell>
        <mxCell id="3fPp0-dOjymZpEGMUhcJ-154" style="edgeStyle=orthogonalEdgeStyle;rounded=0;orthogonalLoop=1;jettySize=auto;html=1;entryX=0.963;entryY=0.615;entryDx=0;entryDy=0;endArrow=none;endFill=0;entryPerimeter=0;" edge="1" parent="1" target="3fPp0-dOjymZpEGMUhcJ-109">
          <mxGeometry relative="1" as="geometry">
            <mxPoint x="710.0000494659444" y="330.52631578947376" as="sourcePoint" />
          </mxGeometry>
        </mxCell>
        <mxCell id="3fPp0-dOjymZpEGMUhcJ-155" style="edgeStyle=orthogonalEdgeStyle;rounded=0;orthogonalLoop=1;jettySize=auto;html=1;entryX=0;entryY=0.5;entryDx=0;entryDy=0;endArrow=none;endFill=0;exitX=1;exitY=0.5;exitDx=0;exitDy=0;exitPerimeter=0;" edge="1" parent="1" source="3fPp0-dOjymZpEGMUhcJ-250" target="3fPp0-dOjymZpEGMUhcJ-77">
          <mxGeometry relative="1" as="geometry">
            <mxPoint x="723.9999505340561" y="330.52631578947376" as="sourcePoint" />
          </mxGeometry>
        </mxCell>
        <mxCell id="3fPp0-dOjymZpEGMUhcJ-156" style="edgeStyle=orthogonalEdgeStyle;rounded=0;orthogonalLoop=1;jettySize=auto;html=1;entryX=1;entryY=0.5;entryDx=0;entryDy=0;endArrow=none;endFill=0;" edge="1" parent="1" target="3fPp0-dOjymZpEGMUhcJ-110">
          <mxGeometry relative="1" as="geometry">
            <mxPoint x="710.0000494659444" y="419.47368421052624" as="sourcePoint" />
          </mxGeometry>
        </mxCell>
        <mxCell id="3fPp0-dOjymZpEGMUhcJ-157" style="edgeStyle=orthogonalEdgeStyle;rounded=0;orthogonalLoop=1;jettySize=auto;html=1;entryX=0;entryY=0.5;entryDx=0;entryDy=0;endArrow=none;endFill=0;exitX=1;exitY=0.5;exitDx=0;exitDy=0;exitPerimeter=0;" edge="1" parent="1" source="3fPp0-dOjymZpEGMUhcJ-251" target="3fPp0-dOjymZpEGMUhcJ-82">
          <mxGeometry relative="1" as="geometry">
            <mxPoint x="723.9999505340561" y="419.47368421052624" as="sourcePoint" />
          </mxGeometry>
        </mxCell>
        <mxCell id="3fPp0-dOjymZpEGMUhcJ-174" style="edgeStyle=orthogonalEdgeStyle;rounded=0;orthogonalLoop=1;jettySize=auto;html=1;entryX=1;entryY=0.5;entryDx=0;entryDy=0;endArrow=none;endFill=0;" edge="1" parent="1" source="3fPp0-dOjymZpEGMUhcJ-139" target="3fPp0-dOjymZpEGMUhcJ-78">
          <mxGeometry relative="1" as="geometry" />
        </mxCell>
        <mxCell id="3fPp0-dOjymZpEGMUhcJ-175" style="edgeStyle=orthogonalEdgeStyle;rounded=0;orthogonalLoop=1;jettySize=auto;html=1;entryX=-0.025;entryY=0.573;entryDx=0;entryDy=0;endArrow=none;endFill=0;entryPerimeter=0;" edge="1" parent="1" source="3fPp0-dOjymZpEGMUhcJ-139" target="3fPp0-dOjymZpEGMUhcJ-117">
          <mxGeometry relative="1" as="geometry" />
        </mxCell>
        <mxCell id="3fPp0-dOjymZpEGMUhcJ-139" value="" style="ellipse;whiteSpace=wrap;html=1;aspect=fixed;" vertex="1" parent="1">
          <mxGeometry x="950" y="323.5" width="14" height="14" as="geometry" />
        </mxCell>
        <mxCell id="3fPp0-dOjymZpEGMUhcJ-176" style="edgeStyle=orthogonalEdgeStyle;rounded=0;orthogonalLoop=1;jettySize=auto;html=1;entryX=1;entryY=0.5;entryDx=0;entryDy=0;endArrow=none;endFill=0;" edge="1" parent="1" source="3fPp0-dOjymZpEGMUhcJ-140" target="3fPp0-dOjymZpEGMUhcJ-83">
          <mxGeometry relative="1" as="geometry" />
        </mxCell>
        <mxCell id="3fPp0-dOjymZpEGMUhcJ-177" style="edgeStyle=orthogonalEdgeStyle;rounded=0;orthogonalLoop=1;jettySize=auto;html=1;entryX=0;entryY=0.5;entryDx=0;entryDy=0;endArrow=none;endFill=0;" edge="1" parent="1" source="3fPp0-dOjymZpEGMUhcJ-140" target="3fPp0-dOjymZpEGMUhcJ-118">
          <mxGeometry relative="1" as="geometry" />
        </mxCell>
        <mxCell id="3fPp0-dOjymZpEGMUhcJ-140" value="" style="ellipse;whiteSpace=wrap;html=1;aspect=fixed;" vertex="1" parent="1">
          <mxGeometry x="950" y="412.5" width="14" height="14" as="geometry" />
        </mxCell>
        <mxCell id="3fPp0-dOjymZpEGMUhcJ-158" style="edgeStyle=orthogonalEdgeStyle;rounded=0;orthogonalLoop=1;jettySize=auto;html=1;entryX=0.994;entryY=0.576;entryDx=0;entryDy=0;endArrow=none;endFill=0;entryPerimeter=0;" edge="1" parent="1" target="3fPp0-dOjymZpEGMUhcJ-111">
          <mxGeometry relative="1" as="geometry">
            <mxPoint x="710.0000494659444" y="511.47368421052624" as="sourcePoint" />
          </mxGeometry>
        </mxCell>
        <mxCell id="3fPp0-dOjymZpEGMUhcJ-162" style="edgeStyle=orthogonalEdgeStyle;rounded=0;orthogonalLoop=1;jettySize=auto;html=1;entryX=-0.006;entryY=0.636;entryDx=0;entryDy=0;endArrow=none;endFill=0;entryPerimeter=0;exitX=1;exitY=0.5;exitDx=0;exitDy=0;exitPerimeter=0;" edge="1" parent="1" source="3fPp0-dOjymZpEGMUhcJ-252" target="3fPp0-dOjymZpEGMUhcJ-87">
          <mxGeometry relative="1" as="geometry">
            <mxPoint x="723.9999505340561" y="511.47368421052624" as="sourcePoint" />
          </mxGeometry>
        </mxCell>
        <mxCell id="3fPp0-dOjymZpEGMUhcJ-164" style="edgeStyle=orthogonalEdgeStyle;rounded=0;orthogonalLoop=1;jettySize=auto;html=1;entryX=0;entryY=0.5;entryDx=0;entryDy=0;endArrow=none;endFill=0;exitX=1.113;exitY=0.512;exitDx=0;exitDy=0;exitPerimeter=0;" edge="1" parent="1" source="3fPp0-dOjymZpEGMUhcJ-253" target="3fPp0-dOjymZpEGMUhcJ-92">
          <mxGeometry relative="1" as="geometry">
            <mxPoint x="723.9999505340561" y="600.5263157894738" as="sourcePoint" />
          </mxGeometry>
        </mxCell>
        <mxCell id="3fPp0-dOjymZpEGMUhcJ-143" value="" style="ellipse;whiteSpace=wrap;html=1;aspect=fixed;" vertex="1" parent="1">
          <mxGeometry x="950" y="504.5" width="14" height="14" as="geometry" />
        </mxCell>
        <mxCell id="3fPp0-dOjymZpEGMUhcJ-182" style="edgeStyle=orthogonalEdgeStyle;rounded=0;orthogonalLoop=1;jettySize=auto;html=1;entryX=0;entryY=0.5;entryDx=0;entryDy=0;endArrow=none;endFill=0;" edge="1" parent="1" source="3fPp0-dOjymZpEGMUhcJ-144" target="3fPp0-dOjymZpEGMUhcJ-120">
          <mxGeometry relative="1" as="geometry" />
        </mxCell>
        <mxCell id="3fPp0-dOjymZpEGMUhcJ-144" value="" style="ellipse;whiteSpace=wrap;html=1;aspect=fixed;" vertex="1" parent="1">
          <mxGeometry x="950" y="593.5" width="14" height="14" as="geometry" />
        </mxCell>
        <mxCell id="3fPp0-dOjymZpEGMUhcJ-163" style="edgeStyle=orthogonalEdgeStyle;rounded=0;orthogonalLoop=1;jettySize=auto;html=1;endArrow=none;endFill=0;entryX=1;entryY=0.5;entryDx=0;entryDy=0;" edge="1" parent="1" target="3fPp0-dOjymZpEGMUhcJ-112">
          <mxGeometry relative="1" as="geometry">
            <mxPoint x="710.0000494659444" y="600.5263157894738" as="sourcePoint" />
            <mxPoint x="690" y="600" as="targetPoint" />
          </mxGeometry>
        </mxCell>
        <mxCell id="3fPp0-dOjymZpEGMUhcJ-171" style="edgeStyle=orthogonalEdgeStyle;rounded=0;orthogonalLoop=1;jettySize=auto;html=1;entryX=0.114;entryY=0.571;entryDx=0;entryDy=0;entryPerimeter=0;endArrow=none;endFill=0;" edge="1" parent="1" source="3fPp0-dOjymZpEGMUhcJ-134" target="3fPp0-dOjymZpEGMUhcJ-115">
          <mxGeometry relative="1" as="geometry" />
        </mxCell>
        <mxCell id="3fPp0-dOjymZpEGMUhcJ-173" style="edgeStyle=orthogonalEdgeStyle;rounded=0;orthogonalLoop=1;jettySize=auto;html=1;entryX=-0.014;entryY=0.401;entryDx=0;entryDy=0;entryPerimeter=0;endArrow=none;endFill=0;" edge="1" parent="1" source="3fPp0-dOjymZpEGMUhcJ-135" target="3fPp0-dOjymZpEGMUhcJ-116">
          <mxGeometry relative="1" as="geometry" />
        </mxCell>
        <mxCell id="3fPp0-dOjymZpEGMUhcJ-178" style="edgeStyle=orthogonalEdgeStyle;rounded=0;orthogonalLoop=1;jettySize=auto;html=1;entryX=1.012;entryY=0.605;entryDx=0;entryDy=0;entryPerimeter=0;endArrow=none;endFill=0;" edge="1" parent="1" source="3fPp0-dOjymZpEGMUhcJ-143" target="3fPp0-dOjymZpEGMUhcJ-88">
          <mxGeometry relative="1" as="geometry" />
        </mxCell>
        <mxCell id="3fPp0-dOjymZpEGMUhcJ-180" style="edgeStyle=orthogonalEdgeStyle;rounded=0;orthogonalLoop=1;jettySize=auto;html=1;entryX=0.029;entryY=0.598;entryDx=0;entryDy=0;entryPerimeter=0;endArrow=none;endFill=0;" edge="1" parent="1" source="3fPp0-dOjymZpEGMUhcJ-143" target="3fPp0-dOjymZpEGMUhcJ-119">
          <mxGeometry relative="1" as="geometry" />
        </mxCell>
        <mxCell id="3fPp0-dOjymZpEGMUhcJ-181" style="edgeStyle=orthogonalEdgeStyle;rounded=0;orthogonalLoop=1;jettySize=auto;html=1;entryX=1;entryY=0.5;entryDx=0;entryDy=0;endArrow=none;endFill=0;" edge="1" parent="1" source="3fPp0-dOjymZpEGMUhcJ-144" target="3fPp0-dOjymZpEGMUhcJ-93">
          <mxGeometry relative="1" as="geometry" />
        </mxCell>
        <mxCell id="3fPp0-dOjymZpEGMUhcJ-183" value="" style="shape=providedRequiredInterface;html=1;verticalLabelPosition=bottom;sketch=0;rotation=0;" vertex="1" parent="1">
          <mxGeometry x="1220" y="222.5" width="35" height="35" as="geometry" />
        </mxCell>
        <mxCell id="3fPp0-dOjymZpEGMUhcJ-187" value="" style="group" vertex="1" connectable="0" parent="1">
          <mxGeometry x="1340" y="115" width="147.37" height="175" as="geometry" />
        </mxCell>
        <mxCell id="3fPp0-dOjymZpEGMUhcJ-22" value="" style="shape=actor;whiteSpace=wrap;html=1;" vertex="1" parent="3fPp0-dOjymZpEGMUhcJ-187">
          <mxGeometry x="3.68425" width="140.0015" height="175" as="geometry" />
        </mxCell>
        <mxCell id="3fPp0-dOjymZpEGMUhcJ-184" value="&lt;font face=&quot;Tahoma&quot; style=&quot;font-size: 24px;&quot;&gt;Player&lt;/font&gt;" style="text;align=center;fontStyle=1;verticalAlign=middle;spacingLeft=3;spacingRight=3;strokeColor=none;rotatable=0;points=[[0,0.5],[1,0.5]];portConstraint=eastwest;html=1;" vertex="1" parent="3fPp0-dOjymZpEGMUhcJ-187">
          <mxGeometry y="105" width="147.37" height="47.89473684210526" as="geometry" />
        </mxCell>
        <mxCell id="3fPp0-dOjymZpEGMUhcJ-192" value="" style="shape=providedRequiredInterface;html=1;verticalLabelPosition=bottom;sketch=0;rotation=-180;" vertex="1" parent="1">
          <mxGeometry x="1150" y="-308" width="32" height="32" as="geometry" />
        </mxCell>
        <mxCell id="3fPp0-dOjymZpEGMUhcJ-193" style="edgeStyle=orthogonalEdgeStyle;rounded=0;orthogonalLoop=1;jettySize=auto;html=1;exitX=0.5;exitY=0;exitDx=0;exitDy=0;endArrow=none;endFill=0;entryX=0;entryY=0.5;entryDx=0;entryDy=0;entryPerimeter=0;" edge="1" parent="1" source="3fPp0-dOjymZpEGMUhcJ-22" target="3fPp0-dOjymZpEGMUhcJ-192">
          <mxGeometry relative="1" as="geometry">
            <mxPoint x="1237.68" y="-37" as="sourcePoint" />
            <mxPoint x="1170" y="-321" as="targetPoint" />
            <Array as="points">
              <mxPoint x="1414" y="-292" />
            </Array>
          </mxGeometry>
        </mxCell>
        <mxCell id="3fPp0-dOjymZpEGMUhcJ-203" value="" style="line;strokeWidth=1;fillColor=none;align=left;verticalAlign=middle;spacingTop=-1;spacingLeft=3;spacingRight=3;rotatable=0;labelPosition=right;points=[];portConstraint=eastwest;strokeColor=inherit;" vertex="1" parent="1">
          <mxGeometry x="1110" y="237" width="40" height="8" as="geometry" />
        </mxCell>
        <mxCell id="3fPp0-dOjymZpEGMUhcJ-205" style="edgeStyle=orthogonalEdgeStyle;rounded=0;orthogonalLoop=1;jettySize=auto;html=1;entryX=1;entryY=0.5;entryDx=0;entryDy=0;entryPerimeter=0;endArrow=none;endFill=0;" edge="1" parent="1" source="3fPp0-dOjymZpEGMUhcJ-184" target="3fPp0-dOjymZpEGMUhcJ-183">
          <mxGeometry relative="1" as="geometry">
            <Array as="points">
              <mxPoint x="1320" y="240" />
              <mxPoint x="1320" y="240" />
            </Array>
          </mxGeometry>
        </mxCell>
        <mxCell id="3fPp0-dOjymZpEGMUhcJ-206" style="edgeStyle=orthogonalEdgeStyle;rounded=0;orthogonalLoop=1;jettySize=auto;html=1;entryX=0;entryY=0.5;entryDx=0;entryDy=0;entryPerimeter=0;endArrow=none;endFill=0;" edge="1" parent="1" source="3fPp0-dOjymZpEGMUhcJ-203" target="3fPp0-dOjymZpEGMUhcJ-183">
          <mxGeometry relative="1" as="geometry" />
        </mxCell>
        <mxCell id="3fPp0-dOjymZpEGMUhcJ-208" value="&lt;font style=&quot;font-size: 14px;&quot;&gt;displayUIFeedback&lt;/font&gt;" style="text;align=center;fontStyle=1;verticalAlign=middle;spacingLeft=3;spacingRight=3;strokeColor=none;rotatable=0;points=[[0,0.5],[1,0.5]];portConstraint=eastwest;html=1;" vertex="1" parent="1">
          <mxGeometry x="1195" y="190" width="80" height="26" as="geometry" />
        </mxCell>
        <mxCell id="3fPp0-dOjymZpEGMUhcJ-209" value="&lt;span style=&quot;font-size: 15px;&quot;&gt;playerInputEvent&lt;/span&gt;" style="text;align=center;fontStyle=1;verticalAlign=middle;spacingLeft=3;spacingRight=3;strokeColor=none;rotatable=0;points=[[0,0.5],[1,0.5]];portConstraint=eastwest;html=1;fontSize=15;" vertex="1" parent="1">
          <mxGeometry x="1126" y="-340" width="80" height="26" as="geometry" />
        </mxCell>
        <mxCell id="3fPp0-dOjymZpEGMUhcJ-220" value="" style="group" vertex="1" connectable="0" parent="1">
          <mxGeometry x="500" y="-410" width="173" height="80" as="geometry" />
        </mxCell>
        <mxCell id="3fPp0-dOjymZpEGMUhcJ-222" value="«component»&lt;br&gt;&lt;b&gt;:playerActionHandler&lt;/b&gt;" style="html=1;dropTarget=0;whiteSpace=wrap;" vertex="1" parent="3fPp0-dOjymZpEGMUhcJ-220">
          <mxGeometry x="6" width="160" height="80" as="geometry" />
        </mxCell>
        <mxCell id="3fPp0-dOjymZpEGMUhcJ-223" value="" style="shape=module;jettyWidth=8;jettyHeight=4;" vertex="1" parent="3fPp0-dOjymZpEGMUhcJ-222">
          <mxGeometry x="1" width="20" height="20" relative="1" as="geometry">
            <mxPoint x="-27" y="7" as="offset" />
          </mxGeometry>
        </mxCell>
        <mxCell id="3fPp0-dOjymZpEGMUhcJ-224" value="" style="whiteSpace=wrap;html=1;aspect=fixed;imageWidth=10;imageHeight=10;" vertex="1" parent="3fPp0-dOjymZpEGMUhcJ-220">
          <mxGeometry x="161" y="34" width="12" height="12" as="geometry" />
        </mxCell>
        <mxCell id="3fPp0-dOjymZpEGMUhcJ-225" value="" style="whiteSpace=wrap;html=1;aspect=fixed;imageWidth=10;imageHeight=10;" vertex="1" parent="3fPp0-dOjymZpEGMUhcJ-220">
          <mxGeometry y="34" width="12" height="12" as="geometry" />
        </mxCell>
        <mxCell id="3fPp0-dOjymZpEGMUhcJ-226" value="" style="group" vertex="1" connectable="0" parent="1">
          <mxGeometry x="500" y="-250" width="173" height="80" as="geometry" />
        </mxCell>
        <mxCell id="3fPp0-dOjymZpEGMUhcJ-228" value="«component»&lt;br&gt;&lt;b&gt;:&lt;font style=&quot;font-size: 11px;&quot;&gt;playerInteractionHandler&lt;/font&gt;&lt;/b&gt;" style="html=1;dropTarget=0;whiteSpace=wrap;" vertex="1" parent="3fPp0-dOjymZpEGMUhcJ-226">
          <mxGeometry x="6" width="160" height="80" as="geometry" />
        </mxCell>
        <mxCell id="3fPp0-dOjymZpEGMUhcJ-229" value="" style="shape=module;jettyWidth=8;jettyHeight=4;" vertex="1" parent="3fPp0-dOjymZpEGMUhcJ-228">
          <mxGeometry x="1" width="20" height="20" relative="1" as="geometry">
            <mxPoint x="-27" y="7" as="offset" />
          </mxGeometry>
        </mxCell>
        <mxCell id="3fPp0-dOjymZpEGMUhcJ-230" value="" style="whiteSpace=wrap;html=1;aspect=fixed;imageWidth=10;imageHeight=10;" vertex="1" parent="3fPp0-dOjymZpEGMUhcJ-226">
          <mxGeometry x="161" y="34" width="12" height="12" as="geometry" />
        </mxCell>
        <mxCell id="3fPp0-dOjymZpEGMUhcJ-231" value="" style="whiteSpace=wrap;html=1;aspect=fixed;imageWidth=10;imageHeight=10;" vertex="1" parent="3fPp0-dOjymZpEGMUhcJ-226">
          <mxGeometry y="34" width="12" height="12" as="geometry" />
        </mxCell>
        <mxCell id="3fPp0-dOjymZpEGMUhcJ-21" value="&lt;b&gt;&lt;font style=&quot;font-size: 20px;&quot;&gt;Controller&lt;/font&gt;&lt;/b&gt;" style="shape=umlFrame;whiteSpace=wrap;html=1;pointerEvents=0;width=110;height=53;" vertex="1" parent="1">
          <mxGeometry x="360" y="-462.5" width="650" height="345" as="geometry" />
        </mxCell>
        <mxCell id="3fPp0-dOjymZpEGMUhcJ-234" value="" style="group" vertex="1" connectable="0" parent="1">
          <mxGeometry x="810" y="-330" width="173" height="80" as="geometry" />
        </mxCell>
        <mxCell id="3fPp0-dOjymZpEGMUhcJ-211" value="«component»&lt;br&gt;&lt;b&gt;:playerInputHandler&lt;/b&gt;" style="html=1;dropTarget=0;whiteSpace=wrap;" vertex="1" parent="3fPp0-dOjymZpEGMUhcJ-234">
          <mxGeometry x="6" width="160" height="80" as="geometry" />
        </mxCell>
        <mxCell id="3fPp0-dOjymZpEGMUhcJ-212" value="" style="shape=module;jettyWidth=8;jettyHeight=4;" vertex="1" parent="3fPp0-dOjymZpEGMUhcJ-211">
          <mxGeometry x="1" width="20" height="20" relative="1" as="geometry">
            <mxPoint x="-27" y="7" as="offset" />
          </mxGeometry>
        </mxCell>
        <mxCell id="3fPp0-dOjymZpEGMUhcJ-214" value="" style="whiteSpace=wrap;html=1;aspect=fixed;imageWidth=10;imageHeight=10;" vertex="1" parent="3fPp0-dOjymZpEGMUhcJ-234">
          <mxGeometry x="161" y="34" width="12" height="12" as="geometry" />
        </mxCell>
        <mxCell id="3fPp0-dOjymZpEGMUhcJ-218" value="" style="whiteSpace=wrap;html=1;aspect=fixed;imageWidth=10;imageHeight=10;" vertex="1" parent="3fPp0-dOjymZpEGMUhcJ-234">
          <mxGeometry y="34" width="12" height="12" as="geometry" />
        </mxCell>
        <mxCell id="3fPp0-dOjymZpEGMUhcJ-237" value="" style="shape=providedRequiredInterface;html=1;verticalLabelPosition=bottom;sketch=0;rotation=-180;" vertex="1" parent="1">
          <mxGeometry x="750" y="-303" width="26" height="26" as="geometry" />
        </mxCell>
        <mxCell id="3fPp0-dOjymZpEGMUhcJ-238" style="edgeStyle=orthogonalEdgeStyle;rounded=0;orthogonalLoop=1;jettySize=auto;html=1;entryX=1;entryY=0.5;entryDx=0;entryDy=0;entryPerimeter=0;endArrow=none;endFill=0;" edge="1" parent="1" source="3fPp0-dOjymZpEGMUhcJ-224" target="3fPp0-dOjymZpEGMUhcJ-237">
          <mxGeometry relative="1" as="geometry">
            <Array as="points">
              <mxPoint x="730" y="-370" />
              <mxPoint x="730" y="-290" />
            </Array>
          </mxGeometry>
        </mxCell>
        <mxCell id="3fPp0-dOjymZpEGMUhcJ-239" style="edgeStyle=orthogonalEdgeStyle;rounded=0;orthogonalLoop=1;jettySize=auto;html=1;entryX=1;entryY=0.5;entryDx=0;entryDy=0;entryPerimeter=0;endArrow=none;endFill=0;" edge="1" parent="1" source="3fPp0-dOjymZpEGMUhcJ-230" target="3fPp0-dOjymZpEGMUhcJ-237">
          <mxGeometry relative="1" as="geometry">
            <Array as="points">
              <mxPoint x="730" y="-210" />
              <mxPoint x="730" y="-290" />
            </Array>
          </mxGeometry>
        </mxCell>
        <mxCell id="3fPp0-dOjymZpEGMUhcJ-240" style="edgeStyle=orthogonalEdgeStyle;rounded=0;orthogonalLoop=1;jettySize=auto;html=1;entryX=0;entryY=0.5;entryDx=0;entryDy=0;entryPerimeter=0;endArrow=none;endFill=0;" edge="1" parent="1" source="3fPp0-dOjymZpEGMUhcJ-218" target="3fPp0-dOjymZpEGMUhcJ-237">
          <mxGeometry relative="1" as="geometry">
            <Array as="points">
              <mxPoint x="776" y="-290" />
            </Array>
          </mxGeometry>
        </mxCell>
        <mxCell id="3fPp0-dOjymZpEGMUhcJ-242" style="edgeStyle=orthogonalEdgeStyle;rounded=0;orthogonalLoop=1;jettySize=auto;html=1;entryX=1.028;entryY=0.425;entryDx=0;entryDy=0;entryPerimeter=0;endArrow=none;endFill=0;exitX=0.583;exitY=0.5;exitDx=0;exitDy=0;exitPerimeter=0;" edge="1" parent="1" source="3fPp0-dOjymZpEGMUhcJ-257" target="3fPp0-dOjymZpEGMUhcJ-192">
          <mxGeometry relative="1" as="geometry">
            <mxPoint x="1016" y="-290.0000000000001" as="sourcePoint" />
          </mxGeometry>
        </mxCell>
        <mxCell id="3fPp0-dOjymZpEGMUhcJ-243" value="" style="shape=requiredInterface;html=1;verticalLabelPosition=bottom;sketch=0;" vertex="1" parent="1">
          <mxGeometry x="705" y="-40" width="15" height="20" as="geometry" />
        </mxCell>
        <mxCell id="3fPp0-dOjymZpEGMUhcJ-244" value="" style="shape=requiredInterface;html=1;verticalLabelPosition=bottom;sketch=0;" vertex="1" parent="1">
          <mxGeometry x="705" y="49" width="15" height="20" as="geometry" />
        </mxCell>
        <mxCell id="3fPp0-dOjymZpEGMUhcJ-245" value="" style="shape=requiredInterface;html=1;verticalLabelPosition=bottom;sketch=0;" vertex="1" parent="1">
          <mxGeometry x="705" y="141" width="15" height="20" as="geometry" />
        </mxCell>
        <mxCell id="3fPp0-dOjymZpEGMUhcJ-246" value="" style="shape=requiredInterface;html=1;verticalLabelPosition=bottom;sketch=0;" vertex="1" parent="1">
          <mxGeometry x="705" y="230" width="15" height="20" as="geometry" />
        </mxCell>
        <mxCell id="3fPp0-dOjymZpEGMUhcJ-249" value="" style="shape=requiredInterface;html=1;verticalLabelPosition=bottom;sketch=0;" vertex="1" parent="1">
          <mxGeometry x="705" y="230" width="15" height="20" as="geometry" />
        </mxCell>
        <mxCell id="3fPp0-dOjymZpEGMUhcJ-250" value="" style="shape=requiredInterface;html=1;verticalLabelPosition=bottom;sketch=0;" vertex="1" parent="1">
          <mxGeometry x="705" y="320.5" width="15" height="20" as="geometry" />
        </mxCell>
        <mxCell id="3fPp0-dOjymZpEGMUhcJ-251" value="" style="shape=requiredInterface;html=1;verticalLabelPosition=bottom;sketch=0;" vertex="1" parent="1">
          <mxGeometry x="705" y="409.5" width="15" height="20" as="geometry" />
        </mxCell>
        <mxCell id="3fPp0-dOjymZpEGMUhcJ-252" value="" style="shape=requiredInterface;html=1;verticalLabelPosition=bottom;sketch=0;" vertex="1" parent="1">
          <mxGeometry x="705" y="501.5" width="15" height="20" as="geometry" />
        </mxCell>
        <mxCell id="3fPp0-dOjymZpEGMUhcJ-253" value="" style="shape=requiredInterface;html=1;verticalLabelPosition=bottom;sketch=0;" vertex="1" parent="1">
          <mxGeometry x="705" y="590" width="15" height="20" as="geometry" />
        </mxCell>
        <mxCell id="3fPp0-dOjymZpEGMUhcJ-257" value="" style="whiteSpace=wrap;html=1;aspect=fixed;imageWidth=10;imageHeight=10;" vertex="1" parent="1">
          <mxGeometry x="1003" y="-296" width="12" height="12" as="geometry" />
        </mxCell>
        <mxCell id="3fPp0-dOjymZpEGMUhcJ-258" style="edgeStyle=orthogonalEdgeStyle;rounded=0;orthogonalLoop=1;jettySize=auto;html=1;entryX=0;entryY=0.5;entryDx=0;entryDy=0;endArrow=none;endFill=0;" edge="1" parent="1" source="3fPp0-dOjymZpEGMUhcJ-214" target="3fPp0-dOjymZpEGMUhcJ-257">
          <mxGeometry relative="1" as="geometry" />
        </mxCell>
        <mxCell id="3fPp0-dOjymZpEGMUhcJ-259" value="" style="whiteSpace=wrap;html=1;aspect=fixed;imageWidth=10;imageHeight=10;" vertex="1" parent="1">
          <mxGeometry x="354" y="-298" width="12" height="12" as="geometry" />
        </mxCell>
        <mxCell id="3fPp0-dOjymZpEGMUhcJ-260" style="edgeStyle=orthogonalEdgeStyle;rounded=0;orthogonalLoop=1;jettySize=auto;html=1;entryX=1;entryY=0.5;entryDx=0;entryDy=0;endArrow=none;endFill=0;" edge="1" parent="1" source="3fPp0-dOjymZpEGMUhcJ-225" target="3fPp0-dOjymZpEGMUhcJ-259">
          <mxGeometry relative="1" as="geometry" />
        </mxCell>
        <mxCell id="3fPp0-dOjymZpEGMUhcJ-262" style="edgeStyle=orthogonalEdgeStyle;rounded=0;orthogonalLoop=1;jettySize=auto;html=1;entryX=1;entryY=0.5;entryDx=0;entryDy=0;endArrow=none;endFill=0;" edge="1" parent="1" source="3fPp0-dOjymZpEGMUhcJ-231" target="3fPp0-dOjymZpEGMUhcJ-259">
          <mxGeometry relative="1" as="geometry" />
        </mxCell>
        <mxCell id="3fPp0-dOjymZpEGMUhcJ-263" value="&lt;span style=&quot;font-size: 15px;&quot;&gt;processEvent&lt;/span&gt;" style="text;align=center;fontStyle=1;verticalAlign=middle;spacingLeft=3;spacingRight=3;strokeColor=none;rotatable=0;points=[[0,0.5],[1,0.5]];portConstraint=eastwest;html=1;fontSize=15;" vertex="1" parent="1">
          <mxGeometry x="730" y="-420" width="80" height="26" as="geometry" />
        </mxCell>
        <mxCell id="3fPp0-dOjymZpEGMUhcJ-266" value="" style="group" vertex="1" connectable="0" parent="1">
          <mxGeometry x="-56.5" y="-25" width="173" height="86" as="geometry" />
        </mxCell>
        <mxCell id="3fPp0-dOjymZpEGMUhcJ-267" value="«component»&lt;br&gt;&lt;b&gt;:Game State&lt;/b&gt;" style="html=1;dropTarget=0;whiteSpace=wrap;" vertex="1" parent="3fPp0-dOjymZpEGMUhcJ-266">
          <mxGeometry x="6" width="160" height="80" as="geometry" />
        </mxCell>
        <mxCell id="3fPp0-dOjymZpEGMUhcJ-268" value="" style="shape=module;jettyWidth=8;jettyHeight=4;" vertex="1" parent="3fPp0-dOjymZpEGMUhcJ-267">
          <mxGeometry x="1" width="20" height="20" relative="1" as="geometry">
            <mxPoint x="-27" y="7" as="offset" />
          </mxGeometry>
        </mxCell>
        <mxCell id="3fPp0-dOjymZpEGMUhcJ-291" value="" style="whiteSpace=wrap;html=1;aspect=fixed;imageWidth=10;imageHeight=10;" vertex="1" parent="3fPp0-dOjymZpEGMUhcJ-266">
          <mxGeometry x="108.6" y="74" width="12" height="12" as="geometry" />
        </mxCell>
        <mxCell id="3fPp0-dOjymZpEGMUhcJ-292" value="" style="whiteSpace=wrap;html=1;aspect=fixed;imageWidth=10;imageHeight=10;" vertex="1" parent="3fPp0-dOjymZpEGMUhcJ-266">
          <mxGeometry x="161" y="13" width="12" height="12" as="geometry" />
        </mxCell>
        <mxCell id="3fPp0-dOjymZpEGMUhcJ-269" value="" style="whiteSpace=wrap;html=1;aspect=fixed;imageWidth=10;imageHeight=10;" vertex="1" parent="3fPp0-dOjymZpEGMUhcJ-266">
          <mxGeometry y="34" width="12" height="12" as="geometry" />
        </mxCell>
        <mxCell id="3fPp0-dOjymZpEGMUhcJ-307" value="" style="whiteSpace=wrap;html=1;aspect=fixed;imageWidth=10;imageHeight=10;" vertex="1" parent="3fPp0-dOjymZpEGMUhcJ-266">
          <mxGeometry x="161" y="55" width="12" height="12" as="geometry" />
        </mxCell>
        <mxCell id="3fPp0-dOjymZpEGMUhcJ-271" value="" style="group;rotation=90;" vertex="1" connectable="0" parent="1">
          <mxGeometry x="-455.84000000000003" y="66" width="144.89" height="125.00249999999998" as="geometry" />
        </mxCell>
        <mxCell id="3fPp0-dOjymZpEGMUhcJ-272" value="«component»&lt;br&gt;&lt;b&gt;:PlayerCharacter&lt;/b&gt;" style="html=1;dropTarget=0;whiteSpace=wrap;" vertex="1" parent="3fPp0-dOjymZpEGMUhcJ-271">
          <mxGeometry x="5.025086705202312" width="134.0023121387283" height="67" as="geometry" />
        </mxCell>
        <mxCell id="3fPp0-dOjymZpEGMUhcJ-273" value="" style="shape=module;jettyWidth=8;jettyHeight=4;" vertex="1" parent="3fPp0-dOjymZpEGMUhcJ-272">
          <mxGeometry x="1" width="12" height="20" relative="1" as="geometry">
            <mxPoint x="-19" y="7" as="offset" />
          </mxGeometry>
        </mxCell>
        <mxCell id="3fPp0-dOjymZpEGMUhcJ-320" value="" style="whiteSpace=wrap;html=1;aspect=fixed;imageWidth=10;imageHeight=10;" vertex="1" parent="3fPp0-dOjymZpEGMUhcJ-271">
          <mxGeometry x="87.93901734104045" y="-4.1875" width="10.05" height="10.05" as="geometry" />
        </mxCell>
        <mxCell id="3fPp0-dOjymZpEGMUhcJ-389" style="edgeStyle=orthogonalEdgeStyle;rounded=0;orthogonalLoop=1;jettySize=auto;html=1;endArrow=none;endFill=0;" edge="1" parent="3fPp0-dOjymZpEGMUhcJ-271" source="3fPp0-dOjymZpEGMUhcJ-38">
          <mxGeometry relative="1" as="geometry">
            <mxPoint x="93" y="-4" as="targetPoint" />
            <Array as="points">
              <mxPoint x="93" y="-7" />
            </Array>
          </mxGeometry>
        </mxCell>
        <mxCell id="3fPp0-dOjymZpEGMUhcJ-38" value="" style="shape=providedRequiredInterface;html=1;verticalLabelPosition=bottom;sketch=0;rotation=-90;" vertex="1" parent="3fPp0-dOjymZpEGMUhcJ-271">
          <mxGeometry x="82.95999999999998" y="-40" width="20" height="20" as="geometry" />
        </mxCell>
        <mxCell id="3fPp0-dOjymZpEGMUhcJ-384" value="" style="whiteSpace=wrap;html=1;aspect=fixed;imageWidth=10;imageHeight=10;" vertex="1" parent="3fPp0-dOjymZpEGMUhcJ-271">
          <mxGeometry x="89" y="61" width="10.05" height="10.05" as="geometry" />
        </mxCell>
        <mxCell id="3fPp0-dOjymZpEGMUhcJ-411" value="" style="shape=providedRequiredInterface;html=1;verticalLabelPosition=bottom;sketch=0;rotation=-90;" vertex="1" parent="3fPp0-dOjymZpEGMUhcJ-271">
          <mxGeometry x="86.52000000000004" y="84" width="15" height="15" as="geometry" />
        </mxCell>
        <mxCell id="3fPp0-dOjymZpEGMUhcJ-454" style="edgeStyle=orthogonalEdgeStyle;rounded=0;orthogonalLoop=1;jettySize=auto;html=1;entryX=1;entryY=0.5;entryDx=0;entryDy=0;entryPerimeter=0;endArrow=none;endFill=0;" edge="1" parent="3fPp0-dOjymZpEGMUhcJ-271" source="3fPp0-dOjymZpEGMUhcJ-384" target="3fPp0-dOjymZpEGMUhcJ-411">
          <mxGeometry relative="1" as="geometry" />
        </mxCell>
        <mxCell id="3fPp0-dOjymZpEGMUhcJ-455" style="edgeStyle=orthogonalEdgeStyle;rounded=0;orthogonalLoop=1;jettySize=auto;html=1;entryX=0;entryY=0.5;entryDx=0;entryDy=0;entryPerimeter=0;endArrow=none;endFill=0;" edge="1" parent="3fPp0-dOjymZpEGMUhcJ-271" source="3fPp0-dOjymZpEGMUhcJ-453" target="3fPp0-dOjymZpEGMUhcJ-411">
          <mxGeometry relative="1" as="geometry" />
        </mxCell>
        <mxCell id="3fPp0-dOjymZpEGMUhcJ-453" value="" style="whiteSpace=wrap;html=1;aspect=fixed;imageWidth=10;imageHeight=10;" vertex="1" parent="3fPp0-dOjymZpEGMUhcJ-271">
          <mxGeometry x="89" y="120" width="10.05" height="10.05" as="geometry" />
        </mxCell>
        <mxCell id="3fPp0-dOjymZpEGMUhcJ-286" value="" style="group" vertex="1" connectable="0" parent="1">
          <mxGeometry x="220" y="110" width="155.7" height="72" as="geometry" />
        </mxCell>
        <mxCell id="3fPp0-dOjymZpEGMUhcJ-287" value="«component»&lt;br&gt;&lt;b&gt;:NPC&lt;/b&gt;" style="html=1;dropTarget=0;whiteSpace=wrap;" vertex="1" parent="3fPp0-dOjymZpEGMUhcJ-286">
          <mxGeometry x="5.3999999999999995" width="144" height="72" as="geometry" />
        </mxCell>
        <mxCell id="3fPp0-dOjymZpEGMUhcJ-288" value="" style="shape=module;jettyWidth=8;jettyHeight=4;" vertex="1" parent="3fPp0-dOjymZpEGMUhcJ-287">
          <mxGeometry x="1" width="20" height="20" relative="1" as="geometry">
            <mxPoint x="-27" y="7" as="offset" />
          </mxGeometry>
        </mxCell>
        <mxCell id="3fPp0-dOjymZpEGMUhcJ-358" value="" style="whiteSpace=wrap;html=1;aspect=fixed;imageWidth=10;imageHeight=10;" vertex="1" parent="3fPp0-dOjymZpEGMUhcJ-286">
          <mxGeometry x="81.09999999999997" y="-8.000000000000014" width="10.799999999999999" height="10.799999999999999" as="geometry" />
        </mxCell>
        <mxCell id="3fPp0-dOjymZpEGMUhcJ-529" value="" style="whiteSpace=wrap;html=1;aspect=fixed;imageWidth=10;imageHeight=10;" vertex="1" parent="3fPp0-dOjymZpEGMUhcJ-286">
          <mxGeometry x="79" y="65" width="10.799999999999999" height="10.799999999999999" as="geometry" />
        </mxCell>
        <mxCell id="3fPp0-dOjymZpEGMUhcJ-301" value="" style="shape=providedRequiredInterface;html=1;verticalLabelPosition=bottom;sketch=0;rotation=-90;" vertex="1" parent="1">
          <mxGeometry x="296.5" y="54" width="20" height="20" as="geometry" />
        </mxCell>
        <mxCell id="3fPp0-dOjymZpEGMUhcJ-306" value="" style="whiteSpace=wrap;html=1;aspect=fixed;imageWidth=10;imageHeight=10;" vertex="1" parent="1">
          <mxGeometry x="24" y="-77" width="12" height="12" as="geometry" />
        </mxCell>
        <mxCell id="3fPp0-dOjymZpEGMUhcJ-310" style="edgeStyle=orthogonalEdgeStyle;rounded=0;orthogonalLoop=1;jettySize=auto;html=1;entryX=1;entryY=0.5;entryDx=0;entryDy=0;entryPerimeter=0;endArrow=none;endFill=0;" edge="1" parent="1" source="3fPp0-dOjymZpEGMUhcJ-307" target="3fPp0-dOjymZpEGMUhcJ-301">
          <mxGeometry relative="1" as="geometry">
            <Array as="points">
              <mxPoint x="307" y="34" />
            </Array>
          </mxGeometry>
        </mxCell>
        <mxCell id="3fPp0-dOjymZpEGMUhcJ-317" style="edgeStyle=orthogonalEdgeStyle;rounded=0;orthogonalLoop=1;jettySize=auto;html=1;entryX=0;entryY=0.5;entryDx=0;entryDy=0;endArrow=none;endFill=0;" edge="1" parent="1" source="3fPp0-dOjymZpEGMUhcJ-313" target="3fPp0-dOjymZpEGMUhcJ-314">
          <mxGeometry relative="1" as="geometry" />
        </mxCell>
        <mxCell id="3fPp0-dOjymZpEGMUhcJ-313" value="" style="ellipse;whiteSpace=wrap;html=1;aspect=fixed;" vertex="1" parent="1">
          <mxGeometry x="316.5" y="-14" width="14" height="14" as="geometry" />
        </mxCell>
        <mxCell id="3fPp0-dOjymZpEGMUhcJ-593" style="edgeStyle=orthogonalEdgeStyle;rounded=0;orthogonalLoop=1;jettySize=auto;html=1;entryX=0.5;entryY=0;entryDx=0;entryDy=0;endArrow=none;endFill=0;" edge="1" parent="1" source="3fPp0-dOjymZpEGMUhcJ-314" target="3fPp0-dOjymZpEGMUhcJ-318">
          <mxGeometry relative="1" as="geometry" />
        </mxCell>
        <mxCell id="3fPp0-dOjymZpEGMUhcJ-314" value="" style="whiteSpace=wrap;html=1;aspect=fixed;imageWidth=10;imageHeight=10;" vertex="1" parent="1">
          <mxGeometry x="425" y="-13" width="12" height="12" as="geometry" />
        </mxCell>
        <mxCell id="3fPp0-dOjymZpEGMUhcJ-316" style="edgeStyle=orthogonalEdgeStyle;rounded=0;orthogonalLoop=1;jettySize=auto;html=1;entryX=0;entryY=0.5;entryDx=0;entryDy=0;endArrow=none;endFill=0;" edge="1" parent="1" source="3fPp0-dOjymZpEGMUhcJ-292" target="3fPp0-dOjymZpEGMUhcJ-313">
          <mxGeometry relative="1" as="geometry">
            <Array as="points">
              <mxPoint x="170" y="-7" />
              <mxPoint x="170" y="-7" />
            </Array>
          </mxGeometry>
        </mxCell>
        <mxCell id="3fPp0-dOjymZpEGMUhcJ-318" value="" style="ellipse;whiteSpace=wrap;html=1;aspect=fixed;" vertex="1" parent="1">
          <mxGeometry x="520" y="174" width="34" height="34" as="geometry" />
        </mxCell>
        <mxCell id="3fPp0-dOjymZpEGMUhcJ-331" style="edgeStyle=orthogonalEdgeStyle;rounded=0;orthogonalLoop=1;jettySize=auto;html=1;entryX=0;entryY=0.5;entryDx=0;entryDy=0;endArrow=none;endFill=0;" edge="1" parent="1" source="3fPp0-dOjymZpEGMUhcJ-330" target="3fPp0-dOjymZpEGMUhcJ-259">
          <mxGeometry relative="1" as="geometry" />
        </mxCell>
        <mxCell id="3fPp0-dOjymZpEGMUhcJ-332" style="edgeStyle=orthogonalEdgeStyle;rounded=0;orthogonalLoop=1;jettySize=auto;html=1;entryX=0.5;entryY=0;entryDx=0;entryDy=0;endArrow=none;endFill=0;" edge="1" parent="1" source="3fPp0-dOjymZpEGMUhcJ-330" target="3fPp0-dOjymZpEGMUhcJ-306">
          <mxGeometry relative="1" as="geometry">
            <Array as="points">
              <mxPoint x="30" y="-293" />
            </Array>
          </mxGeometry>
        </mxCell>
        <mxCell id="3fPp0-dOjymZpEGMUhcJ-330" value="" style="shape=providedRequiredInterface;html=1;verticalLabelPosition=bottom;sketch=0;rotation=-180;" vertex="1" parent="1">
          <mxGeometry x="110" y="-308" width="32" height="32" as="geometry" />
        </mxCell>
        <mxCell id="3fPp0-dOjymZpEGMUhcJ-333" value="&lt;span style=&quot;font-size: 15px;&quot;&gt;updateGameState&lt;/span&gt;" style="text;align=center;fontStyle=1;verticalAlign=middle;spacingLeft=3;spacingRight=3;strokeColor=none;rotatable=0;points=[[0,0.5],[1,0.5]];portConstraint=eastwest;html=1;fontSize=15;" vertex="1" parent="1">
          <mxGeometry x="86" y="-340" width="80" height="26" as="geometry" />
        </mxCell>
        <mxCell id="3fPp0-dOjymZpEGMUhcJ-334" value="" style="group" vertex="1" connectable="0" parent="1">
          <mxGeometry x="-520" y="370" width="108.13" height="50" as="geometry" />
        </mxCell>
        <mxCell id="3fPp0-dOjymZpEGMUhcJ-335" value="&lt;font style=&quot;font-size: 9px;&quot;&gt;&lt;b&gt;«component»&lt;br&gt;:Health&lt;/b&gt;&lt;/font&gt;" style="html=1;dropTarget=0;whiteSpace=wrap;" vertex="1" parent="3fPp0-dOjymZpEGMUhcJ-334">
          <mxGeometry x="3.750173410404624" width="100.00462427745663" height="50" as="geometry" />
        </mxCell>
        <mxCell id="3fPp0-dOjymZpEGMUhcJ-336" value="" style="shape=module;jettyWidth=8;jettyHeight=4;" vertex="1" parent="3fPp0-dOjymZpEGMUhcJ-335">
          <mxGeometry x="1" width="11" height="11" relative="1" as="geometry">
            <mxPoint x="-18" y="7" as="offset" />
          </mxGeometry>
        </mxCell>
        <mxCell id="3fPp0-dOjymZpEGMUhcJ-359" style="edgeStyle=orthogonalEdgeStyle;rounded=0;orthogonalLoop=1;jettySize=auto;html=1;entryX=0;entryY=0.5;entryDx=0;entryDy=0;entryPerimeter=0;endArrow=none;endFill=0;" edge="1" parent="1" source="3fPp0-dOjymZpEGMUhcJ-358" target="3fPp0-dOjymZpEGMUhcJ-301">
          <mxGeometry relative="1" as="geometry" />
        </mxCell>
        <mxCell id="3fPp0-dOjymZpEGMUhcJ-364" value="getPlayerData" style="text;align=center;fontStyle=1;verticalAlign=middle;spacingLeft=3;spacingRight=3;strokeColor=none;rotatable=0;points=[[0,0.5],[1,0.5]];portConstraint=eastwest;html=1;" vertex="1" parent="1">
          <mxGeometry x="-195.11" y="-13" width="80" height="26" as="geometry" />
        </mxCell>
        <mxCell id="3fPp0-dOjymZpEGMUhcJ-367" value="initialiseNPC" style="text;align=center;fontStyle=1;verticalAlign=middle;spacingLeft=3;spacingRight=3;strokeColor=none;rotatable=0;points=[[0,0.5],[1,0.5]];portConstraint=eastwest;html=1;" vertex="1" parent="1">
          <mxGeometry x="180" y="10" width="80" height="26" as="geometry" />
        </mxCell>
        <mxCell id="3fPp0-dOjymZpEGMUhcJ-382" value="" style="whiteSpace=wrap;html=1;aspect=fixed;imageWidth=10;imageHeight=10;" vertex="1" parent="1">
          <mxGeometry x="-322" y="104.9525" width="10.05" height="10.05" as="geometry" />
        </mxCell>
        <mxCell id="3fPp0-dOjymZpEGMUhcJ-398" value="" style="group" vertex="1" connectable="0" parent="1">
          <mxGeometry x="-400" y="370" width="108.13" height="50" as="geometry" />
        </mxCell>
        <mxCell id="3fPp0-dOjymZpEGMUhcJ-399" value="&lt;font style=&quot;font-size: 9px;&quot;&gt;&lt;b&gt;«component»&lt;br&gt;:SkillPoints&lt;/b&gt;&lt;/font&gt;" style="html=1;dropTarget=0;whiteSpace=wrap;" vertex="1" parent="3fPp0-dOjymZpEGMUhcJ-398">
          <mxGeometry x="3.750173410404624" width="100.00462427745663" height="50" as="geometry" />
        </mxCell>
        <mxCell id="3fPp0-dOjymZpEGMUhcJ-400" value="" style="shape=module;jettyWidth=8;jettyHeight=4;" vertex="1" parent="3fPp0-dOjymZpEGMUhcJ-399">
          <mxGeometry x="1" width="11" height="11" relative="1" as="geometry">
            <mxPoint x="-18" y="7" as="offset" />
          </mxGeometry>
        </mxCell>
        <mxCell id="3fPp0-dOjymZpEGMUhcJ-401" value="" style="whiteSpace=wrap;html=1;aspect=fixed;imageWidth=10;imageHeight=10;" vertex="1" parent="3fPp0-dOjymZpEGMUhcJ-398">
          <mxGeometry x="42" y="-4" width="7.5" height="7.5" as="geometry" />
        </mxCell>
        <mxCell id="3fPp0-dOjymZpEGMUhcJ-402" value="" style="group" vertex="1" connectable="0" parent="1">
          <mxGeometry x="-280" y="370" width="108.13" height="50" as="geometry" />
        </mxCell>
        <mxCell id="3fPp0-dOjymZpEGMUhcJ-403" value="&lt;font style=&quot;font-size: 9px;&quot;&gt;&lt;b&gt;«component»&lt;br&gt;:Gold&lt;/b&gt;&lt;/font&gt;" style="html=1;dropTarget=0;whiteSpace=wrap;" vertex="1" parent="3fPp0-dOjymZpEGMUhcJ-402">
          <mxGeometry x="3.750173410404624" width="100.00462427745663" height="50" as="geometry" />
        </mxCell>
        <mxCell id="3fPp0-dOjymZpEGMUhcJ-404" value="" style="shape=module;jettyWidth=8;jettyHeight=4;" vertex="1" parent="3fPp0-dOjymZpEGMUhcJ-403">
          <mxGeometry x="1" width="11" height="11" relative="1" as="geometry">
            <mxPoint x="-18" y="7" as="offset" />
          </mxGeometry>
        </mxCell>
        <mxCell id="3fPp0-dOjymZpEGMUhcJ-405" value="" style="whiteSpace=wrap;html=1;aspect=fixed;imageWidth=10;imageHeight=10;" vertex="1" parent="3fPp0-dOjymZpEGMUhcJ-402">
          <mxGeometry x="65.62803468208092" y="-3.125" width="7.5" height="7.5" as="geometry" />
        </mxCell>
        <mxCell id="3fPp0-dOjymZpEGMUhcJ-337" value="" style="whiteSpace=wrap;html=1;aspect=fixed;imageWidth=10;imageHeight=10;" vertex="1" parent="1">
          <mxGeometry x="-506" y="366" width="7.5" height="7.5" as="geometry" />
        </mxCell>
        <mxCell id="3fPp0-dOjymZpEGMUhcJ-409" value="" style="whiteSpace=wrap;html=1;aspect=fixed;imageWidth=10;imageHeight=10;" vertex="1" parent="1">
          <mxGeometry x="-319" y="239.95" width="10.05" height="10.05" as="geometry" />
        </mxCell>
        <mxCell id="3fPp0-dOjymZpEGMUhcJ-433" style="edgeStyle=orthogonalEdgeStyle;rounded=0;orthogonalLoop=1;jettySize=auto;html=1;entryX=0;entryY=0.5;entryDx=0;entryDy=0;endArrow=none;endFill=0;" edge="1" parent="1" source="3fPp0-dOjymZpEGMUhcJ-416" target="3fPp0-dOjymZpEGMUhcJ-406">
          <mxGeometry relative="1" as="geometry">
            <Array as="points">
              <mxPoint x="-502" y="232" />
            </Array>
          </mxGeometry>
        </mxCell>
        <mxCell id="3fPp0-dOjymZpEGMUhcJ-434" style="edgeStyle=orthogonalEdgeStyle;rounded=0;orthogonalLoop=1;jettySize=auto;html=1;entryX=0.5;entryY=0;entryDx=0;entryDy=0;endArrow=none;endFill=0;" edge="1" parent="1" source="3fPp0-dOjymZpEGMUhcJ-416" target="3fPp0-dOjymZpEGMUhcJ-337">
          <mxGeometry relative="1" as="geometry" />
        </mxCell>
        <mxCell id="3fPp0-dOjymZpEGMUhcJ-416" value="" style="shape=providedRequiredInterface;html=1;verticalLabelPosition=bottom;sketch=0;rotation=-90;" vertex="1" parent="1">
          <mxGeometry x="-509.75" y="290" width="15" height="15" as="geometry" />
        </mxCell>
        <mxCell id="3fPp0-dOjymZpEGMUhcJ-417" value="" style="shape=providedRequiredInterface;html=1;verticalLabelPosition=bottom;sketch=0;rotation=-90;" vertex="1" parent="1">
          <mxGeometry x="-361.75" y="308.5" width="15" height="15" as="geometry" />
        </mxCell>
        <mxCell id="3fPp0-dOjymZpEGMUhcJ-418" value="" style="shape=providedRequiredInterface;html=1;verticalLabelPosition=bottom;sketch=0;rotation=-90;" vertex="1" parent="1">
          <mxGeometry x="-218.12" y="308.5" width="15" height="15" as="geometry" />
        </mxCell>
        <mxCell id="3fPp0-dOjymZpEGMUhcJ-425" style="edgeStyle=orthogonalEdgeStyle;rounded=0;orthogonalLoop=1;jettySize=auto;html=1;entryX=1;entryY=0.5;entryDx=0;entryDy=0;entryPerimeter=0;endArrow=none;endFill=0;" edge="1" parent="1" source="3fPp0-dOjymZpEGMUhcJ-409" target="3fPp0-dOjymZpEGMUhcJ-418">
          <mxGeometry relative="1" as="geometry" />
        </mxCell>
        <mxCell id="3fPp0-dOjymZpEGMUhcJ-435" value="«component»&lt;br&gt;&lt;b&gt;:PlayerActions&lt;/b&gt;" style="html=1;dropTarget=0;whiteSpace=wrap;" vertex="1" parent="1">
          <mxGeometry x="-139" y="174" width="124" height="57.05" as="geometry" />
        </mxCell>
        <mxCell id="3fPp0-dOjymZpEGMUhcJ-436" value="" style="shape=module;jettyWidth=8;jettyHeight=4;" vertex="1" parent="3fPp0-dOjymZpEGMUhcJ-435">
          <mxGeometry x="1" width="12" height="20" relative="1" as="geometry">
            <mxPoint x="-19" y="7" as="offset" />
          </mxGeometry>
        </mxCell>
        <mxCell id="3fPp0-dOjymZpEGMUhcJ-437" style="edgeStyle=orthogonalEdgeStyle;rounded=0;orthogonalLoop=1;jettySize=auto;html=1;entryX=0;entryY=0.5;entryDx=0;entryDy=0;entryPerimeter=0;endArrow=none;endFill=0;" edge="1" parent="1" source="3fPp0-dOjymZpEGMUhcJ-401" target="3fPp0-dOjymZpEGMUhcJ-417">
          <mxGeometry relative="1" as="geometry">
            <Array as="points">
              <mxPoint x="-354" y="324" />
            </Array>
          </mxGeometry>
        </mxCell>
        <mxCell id="3fPp0-dOjymZpEGMUhcJ-439" style="edgeStyle=orthogonalEdgeStyle;rounded=0;orthogonalLoop=1;jettySize=auto;html=1;entryX=1;entryY=0.5;entryDx=0;entryDy=0;entryPerimeter=0;endArrow=none;endFill=0;" edge="1" parent="1" source="3fPp0-dOjymZpEGMUhcJ-408" target="3fPp0-dOjymZpEGMUhcJ-417">
          <mxGeometry relative="1" as="geometry">
            <Array as="points">
              <mxPoint x="-381" y="280" />
              <mxPoint x="-354" y="280" />
            </Array>
          </mxGeometry>
        </mxCell>
        <mxCell id="3fPp0-dOjymZpEGMUhcJ-459" style="edgeStyle=orthogonalEdgeStyle;rounded=0;orthogonalLoop=1;jettySize=auto;html=1;entryX=0.5;entryY=0;entryDx=0;entryDy=0;endArrow=none;endFill=0;" edge="1" parent="1" source="3fPp0-dOjymZpEGMUhcJ-440" target="3fPp0-dOjymZpEGMUhcJ-442">
          <mxGeometry relative="1" as="geometry" />
        </mxCell>
        <mxCell id="3fPp0-dOjymZpEGMUhcJ-440" value="" style="shape=providedRequiredInterface;html=1;verticalLabelPosition=bottom;sketch=0;rotation=-180;" vertex="1" parent="1">
          <mxGeometry x="-150" y="99.97999999999999" width="20" height="20" as="geometry" />
        </mxCell>
        <mxCell id="3fPp0-dOjymZpEGMUhcJ-442" value="" style="whiteSpace=wrap;html=1;aspect=fixed;imageWidth=10;imageHeight=10;" vertex="1" parent="1">
          <mxGeometry x="-90" y="168" width="10.05" height="10.05" as="geometry" />
        </mxCell>
        <mxCell id="3fPp0-dOjymZpEGMUhcJ-450" value="«component»&lt;br&gt;&lt;b&gt;:npcActions&lt;/b&gt;" style="html=1;dropTarget=0;whiteSpace=wrap;" vertex="1" parent="1">
          <mxGeometry x="237.43" y="231" width="120.85" height="62" as="geometry" />
        </mxCell>
        <mxCell id="3fPp0-dOjymZpEGMUhcJ-451" value="" style="shape=module;jettyWidth=8;jettyHeight=4;" vertex="1" parent="3fPp0-dOjymZpEGMUhcJ-450">
          <mxGeometry x="1" width="12" height="20" relative="1" as="geometry">
            <mxPoint x="-19" y="7" as="offset" />
          </mxGeometry>
        </mxCell>
        <mxCell id="3fPp0-dOjymZpEGMUhcJ-406" value="" style="whiteSpace=wrap;html=1;aspect=fixed;imageWidth=10;imageHeight=10;" vertex="1" parent="1">
          <mxGeometry x="-453.84098265895966" y="227" width="10.05" height="10.05" as="geometry" />
        </mxCell>
        <mxCell id="3fPp0-dOjymZpEGMUhcJ-408" value="" style="whiteSpace=wrap;html=1;aspect=fixed;imageWidth=10;imageHeight=10;" vertex="1" parent="1">
          <mxGeometry x="-386.42" y="253" width="10.05" height="10.05" as="geometry" />
        </mxCell>
        <mxCell id="3fPp0-dOjymZpEGMUhcJ-456" style="edgeStyle=orthogonalEdgeStyle;rounded=0;orthogonalLoop=1;jettySize=auto;html=1;entryX=0;entryY=0.5;entryDx=0;entryDy=0;entryPerimeter=0;endArrow=none;endFill=0;" edge="1" parent="1" source="3fPp0-dOjymZpEGMUhcJ-405" target="3fPp0-dOjymZpEGMUhcJ-418">
          <mxGeometry relative="1" as="geometry" />
        </mxCell>
        <mxCell id="3fPp0-dOjymZpEGMUhcJ-458" style="edgeStyle=orthogonalEdgeStyle;rounded=0;orthogonalLoop=1;jettySize=auto;html=1;entryX=1;entryY=0.5;entryDx=0;entryDy=0;entryPerimeter=0;endArrow=none;endFill=0;" edge="1" parent="1" source="3fPp0-dOjymZpEGMUhcJ-382" target="3fPp0-dOjymZpEGMUhcJ-440">
          <mxGeometry relative="1" as="geometry" />
        </mxCell>
        <mxCell id="3fPp0-dOjymZpEGMUhcJ-460" value="" style="group" vertex="1" connectable="0" parent="1">
          <mxGeometry x="-91.88" y="490" width="108.13" height="50" as="geometry" />
        </mxCell>
        <mxCell id="3fPp0-dOjymZpEGMUhcJ-461" value="&lt;font style=&quot;font-size: 9px;&quot;&gt;&lt;b&gt;«component»&lt;br&gt;:Dodge&lt;/b&gt;&lt;/font&gt;" style="html=1;dropTarget=0;whiteSpace=wrap;" vertex="1" parent="3fPp0-dOjymZpEGMUhcJ-460">
          <mxGeometry x="3.750173410404624" width="100.00462427745663" height="50" as="geometry" />
        </mxCell>
        <mxCell id="3fPp0-dOjymZpEGMUhcJ-462" value="" style="shape=module;jettyWidth=8;jettyHeight=4;" vertex="1" parent="3fPp0-dOjymZpEGMUhcJ-461">
          <mxGeometry x="1" width="11" height="11" relative="1" as="geometry">
            <mxPoint x="-18" y="7" as="offset" />
          </mxGeometry>
        </mxCell>
        <mxCell id="3fPp0-dOjymZpEGMUhcJ-463" value="" style="whiteSpace=wrap;html=1;aspect=fixed;imageWidth=10;imageHeight=10;" vertex="1" parent="3fPp0-dOjymZpEGMUhcJ-460">
          <mxGeometry x="65.62803468208092" y="-3.125" width="7.5" height="7.5" as="geometry" />
        </mxCell>
        <mxCell id="3fPp0-dOjymZpEGMUhcJ-464" value="" style="group" vertex="1" connectable="0" parent="1">
          <mxGeometry x="16.490000000000002" y="490" width="108.13" height="50" as="geometry" />
        </mxCell>
        <mxCell id="3fPp0-dOjymZpEGMUhcJ-465" value="&lt;font style=&quot;font-size: 9px;&quot;&gt;&lt;b&gt;«component»&lt;br&gt;:Conversate&lt;/b&gt;&lt;/font&gt;" style="html=1;dropTarget=0;whiteSpace=wrap;" vertex="1" parent="3fPp0-dOjymZpEGMUhcJ-464">
          <mxGeometry x="3.750173410404624" width="100.00462427745663" height="50" as="geometry" />
        </mxCell>
        <mxCell id="3fPp0-dOjymZpEGMUhcJ-466" value="" style="shape=module;jettyWidth=8;jettyHeight=4;" vertex="1" parent="3fPp0-dOjymZpEGMUhcJ-465">
          <mxGeometry x="1" width="11" height="11" relative="1" as="geometry">
            <mxPoint x="-18" y="7" as="offset" />
          </mxGeometry>
        </mxCell>
        <mxCell id="3fPp0-dOjymZpEGMUhcJ-467" value="" style="whiteSpace=wrap;html=1;aspect=fixed;imageWidth=10;imageHeight=10;" vertex="1" parent="3fPp0-dOjymZpEGMUhcJ-464">
          <mxGeometry x="65.62803468208092" y="-3.125" width="7.5" height="7.5" as="geometry" />
        </mxCell>
        <mxCell id="3fPp0-dOjymZpEGMUhcJ-468" value="" style="group" vertex="1" connectable="0" parent="1">
          <mxGeometry x="-210" y="490" width="108.13" height="50" as="geometry" />
        </mxCell>
        <mxCell id="3fPp0-dOjymZpEGMUhcJ-469" value="&lt;font style=&quot;font-size: 9px;&quot;&gt;&lt;b&gt;«component»&lt;br&gt;:Attack&lt;/b&gt;&lt;/font&gt;" style="html=1;dropTarget=0;whiteSpace=wrap;" vertex="1" parent="3fPp0-dOjymZpEGMUhcJ-468">
          <mxGeometry x="3.750173410404624" width="100.00462427745663" height="50" as="geometry" />
        </mxCell>
        <mxCell id="3fPp0-dOjymZpEGMUhcJ-470" value="" style="shape=module;jettyWidth=8;jettyHeight=4;" vertex="1" parent="3fPp0-dOjymZpEGMUhcJ-469">
          <mxGeometry x="1" width="11" height="11" relative="1" as="geometry">
            <mxPoint x="-18" y="7" as="offset" />
          </mxGeometry>
        </mxCell>
        <mxCell id="3fPp0-dOjymZpEGMUhcJ-471" value="" style="whiteSpace=wrap;html=1;aspect=fixed;imageWidth=10;imageHeight=10;" vertex="1" parent="3fPp0-dOjymZpEGMUhcJ-468">
          <mxGeometry x="65.62803468208092" y="-3.125" width="7.5" height="7.5" as="geometry" />
        </mxCell>
        <mxCell id="3fPp0-dOjymZpEGMUhcJ-479" value="" style="whiteSpace=wrap;html=1;aspect=fixed;imageWidth=10;imageHeight=10;" vertex="1" parent="1">
          <mxGeometry x="-121.88" y="224.95" width="10.05" height="10.05" as="geometry" />
        </mxCell>
        <mxCell id="3fPp0-dOjymZpEGMUhcJ-480" value="" style="whiteSpace=wrap;html=1;aspect=fixed;imageWidth=10;imageHeight=10;" vertex="1" parent="1">
          <mxGeometry x="-79.95" y="224.95" width="10.05" height="10.05" as="geometry" />
        </mxCell>
        <mxCell id="3fPp0-dOjymZpEGMUhcJ-481" value="" style="whiteSpace=wrap;html=1;aspect=fixed;imageWidth=10;imageHeight=10;" vertex="1" parent="1">
          <mxGeometry x="-40" y="224.95" width="10.05" height="10.05" as="geometry" />
        </mxCell>
        <mxCell id="3fPp0-dOjymZpEGMUhcJ-506" style="edgeStyle=orthogonalEdgeStyle;rounded=0;orthogonalLoop=1;jettySize=auto;html=1;entryX=0.5;entryY=1;entryDx=0;entryDy=0;endArrow=none;endFill=0;" edge="1" parent="1" source="3fPp0-dOjymZpEGMUhcJ-484" target="3fPp0-dOjymZpEGMUhcJ-479">
          <mxGeometry relative="1" as="geometry">
            <Array as="points">
              <mxPoint x="-140" y="350" />
              <mxPoint x="-117" y="350" />
            </Array>
          </mxGeometry>
        </mxCell>
        <mxCell id="3fPp0-dOjymZpEGMUhcJ-484" value="" style="shape=providedRequiredInterface;html=1;verticalLabelPosition=bottom;sketch=0;rotation=-90;" vertex="1" parent="1">
          <mxGeometry x="-147.5" y="440" width="15" height="15" as="geometry" />
        </mxCell>
        <mxCell id="3fPp0-dOjymZpEGMUhcJ-485" value="" style="shape=providedRequiredInterface;html=1;verticalLabelPosition=bottom;sketch=0;rotation=-90;" vertex="1" parent="1">
          <mxGeometry x="-29.95" y="440" width="15" height="15" as="geometry" />
        </mxCell>
        <mxCell id="3fPp0-dOjymZpEGMUhcJ-486" value="" style="shape=providedRequiredInterface;html=1;verticalLabelPosition=bottom;sketch=0;rotation=-90;" vertex="1" parent="1">
          <mxGeometry x="79" y="440" width="15" height="15" as="geometry" />
        </mxCell>
        <mxCell id="3fPp0-dOjymZpEGMUhcJ-487" value="" style="shape=requiredInterface;html=1;verticalLabelPosition=bottom;sketch=0;" vertex="1" parent="1">
          <mxGeometry x="640" y="-41" width="15" height="20" as="geometry" />
        </mxCell>
        <mxCell id="3fPp0-dOjymZpEGMUhcJ-488" value="" style="shape=requiredInterface;html=1;verticalLabelPosition=bottom;sketch=0;" vertex="1" parent="1">
          <mxGeometry x="640" y="49" width="15" height="20" as="geometry" />
        </mxCell>
        <mxCell id="3fPp0-dOjymZpEGMUhcJ-489" value="" style="shape=requiredInterface;html=1;verticalLabelPosition=bottom;sketch=0;" vertex="1" parent="1">
          <mxGeometry x="640" y="141" width="15" height="20" as="geometry" />
        </mxCell>
        <mxCell id="3fPp0-dOjymZpEGMUhcJ-490" value="" style="shape=requiredInterface;html=1;verticalLabelPosition=bottom;sketch=0;" vertex="1" parent="1">
          <mxGeometry x="640" y="231" width="15" height="20" as="geometry" />
        </mxCell>
        <mxCell id="3fPp0-dOjymZpEGMUhcJ-491" value="" style="shape=requiredInterface;html=1;verticalLabelPosition=bottom;sketch=0;" vertex="1" parent="1">
          <mxGeometry x="640" y="320.5" width="15" height="20" as="geometry" />
        </mxCell>
        <mxCell id="3fPp0-dOjymZpEGMUhcJ-492" value="" style="shape=requiredInterface;html=1;verticalLabelPosition=bottom;sketch=0;" vertex="1" parent="1">
          <mxGeometry x="640" y="410.5" width="15" height="20" as="geometry" />
        </mxCell>
        <mxCell id="3fPp0-dOjymZpEGMUhcJ-493" value="" style="shape=requiredInterface;html=1;verticalLabelPosition=bottom;sketch=0;" vertex="1" parent="1">
          <mxGeometry x="640" y="502.5" width="15" height="20" as="geometry" />
        </mxCell>
        <mxCell id="3fPp0-dOjymZpEGMUhcJ-494" value="" style="shape=requiredInterface;html=1;verticalLabelPosition=bottom;sketch=0;" vertex="1" parent="1">
          <mxGeometry x="640" y="592.5" width="15" height="20" as="geometry" />
        </mxCell>
        <mxCell id="3fPp0-dOjymZpEGMUhcJ-496" style="edgeStyle=orthogonalEdgeStyle;rounded=0;orthogonalLoop=1;jettySize=auto;html=1;entryX=1;entryY=0.5;entryDx=0;entryDy=0;entryPerimeter=0;endArrow=none;endFill=0;" edge="1" parent="1" source="3fPp0-dOjymZpEGMUhcJ-106" target="3fPp0-dOjymZpEGMUhcJ-488">
          <mxGeometry relative="1" as="geometry" />
        </mxCell>
        <mxCell id="3fPp0-dOjymZpEGMUhcJ-497" style="edgeStyle=orthogonalEdgeStyle;rounded=0;orthogonalLoop=1;jettySize=auto;html=1;entryX=1;entryY=0.5;entryDx=0;entryDy=0;entryPerimeter=0;endArrow=none;endFill=0;" edge="1" parent="1" source="3fPp0-dOjymZpEGMUhcJ-107" target="3fPp0-dOjymZpEGMUhcJ-489">
          <mxGeometry relative="1" as="geometry" />
        </mxCell>
        <mxCell id="3fPp0-dOjymZpEGMUhcJ-499" style="edgeStyle=orthogonalEdgeStyle;rounded=0;orthogonalLoop=1;jettySize=auto;html=1;entryX=1;entryY=0.5;entryDx=0;entryDy=0;entryPerimeter=0;endArrow=none;endFill=0;" edge="1" parent="1" source="3fPp0-dOjymZpEGMUhcJ-109" target="3fPp0-dOjymZpEGMUhcJ-491">
          <mxGeometry relative="1" as="geometry" />
        </mxCell>
        <mxCell id="3fPp0-dOjymZpEGMUhcJ-502" style="edgeStyle=orthogonalEdgeStyle;rounded=0;orthogonalLoop=1;jettySize=auto;html=1;entryX=1;entryY=0.5;entryDx=0;entryDy=0;entryPerimeter=0;endArrow=none;endFill=0;" edge="1" parent="1" source="3fPp0-dOjymZpEGMUhcJ-112" target="3fPp0-dOjymZpEGMUhcJ-494">
          <mxGeometry relative="1" as="geometry" />
        </mxCell>
        <mxCell id="3fPp0-dOjymZpEGMUhcJ-503" style="edgeStyle=orthogonalEdgeStyle;rounded=0;orthogonalLoop=1;jettySize=auto;html=1;entryX=0;entryY=0.5;entryDx=0;entryDy=0;entryPerimeter=0;endArrow=none;endFill=0;" edge="1" parent="1" source="3fPp0-dOjymZpEGMUhcJ-467" target="3fPp0-dOjymZpEGMUhcJ-486">
          <mxGeometry relative="1" as="geometry" />
        </mxCell>
        <mxCell id="3fPp0-dOjymZpEGMUhcJ-504" style="edgeStyle=orthogonalEdgeStyle;rounded=0;orthogonalLoop=1;jettySize=auto;html=1;entryX=0;entryY=0.5;entryDx=0;entryDy=0;entryPerimeter=0;endArrow=none;endFill=0;" edge="1" parent="1" source="3fPp0-dOjymZpEGMUhcJ-463" target="3fPp0-dOjymZpEGMUhcJ-485">
          <mxGeometry relative="1" as="geometry" />
        </mxCell>
        <mxCell id="3fPp0-dOjymZpEGMUhcJ-505" style="edgeStyle=orthogonalEdgeStyle;rounded=0;orthogonalLoop=1;jettySize=auto;html=1;entryX=0;entryY=0.5;entryDx=0;entryDy=0;entryPerimeter=0;endArrow=none;endFill=0;" edge="1" parent="1" source="3fPp0-dOjymZpEGMUhcJ-471" target="3fPp0-dOjymZpEGMUhcJ-484">
          <mxGeometry relative="1" as="geometry" />
        </mxCell>
        <mxCell id="3fPp0-dOjymZpEGMUhcJ-509" style="edgeStyle=orthogonalEdgeStyle;rounded=0;orthogonalLoop=1;jettySize=auto;html=1;entryX=1;entryY=0.5;entryDx=0;entryDy=0;entryPerimeter=0;endArrow=none;endFill=0;" edge="1" parent="1" source="3fPp0-dOjymZpEGMUhcJ-480" target="3fPp0-dOjymZpEGMUhcJ-485">
          <mxGeometry relative="1" as="geometry">
            <Array as="points">
              <mxPoint x="-75" y="340" />
              <mxPoint x="-22" y="340" />
            </Array>
          </mxGeometry>
        </mxCell>
        <mxCell id="3fPp0-dOjymZpEGMUhcJ-510" style="edgeStyle=orthogonalEdgeStyle;rounded=0;orthogonalLoop=1;jettySize=auto;html=1;entryX=1;entryY=0.5;entryDx=0;entryDy=0;entryPerimeter=0;endArrow=none;endFill=0;" edge="1" parent="1" source="3fPp0-dOjymZpEGMUhcJ-481" target="3fPp0-dOjymZpEGMUhcJ-486">
          <mxGeometry relative="1" as="geometry">
            <Array as="points">
              <mxPoint x="-35" y="300" />
              <mxPoint x="87" y="300" />
            </Array>
          </mxGeometry>
        </mxCell>
        <mxCell id="3fPp0-dOjymZpEGMUhcJ-511" value="" style="group" vertex="1" connectable="0" parent="1">
          <mxGeometry x="180" y="360" width="108.13" height="52.5" as="geometry" />
        </mxCell>
        <mxCell id="3fPp0-dOjymZpEGMUhcJ-512" value="&lt;font style=&quot;font-size: 9px;&quot;&gt;&lt;b&gt;«component»&lt;br&gt;:Viking&lt;/b&gt;&lt;/font&gt;" style="html=1;dropTarget=0;whiteSpace=wrap;" vertex="1" parent="3fPp0-dOjymZpEGMUhcJ-511">
          <mxGeometry x="3.750173410404624" width="100.00462427745663" height="50" as="geometry" />
        </mxCell>
        <mxCell id="3fPp0-dOjymZpEGMUhcJ-513" value="" style="shape=module;jettyWidth=8;jettyHeight=4;" vertex="1" parent="3fPp0-dOjymZpEGMUhcJ-512">
          <mxGeometry x="1" width="11" height="11" relative="1" as="geometry">
            <mxPoint x="-18" y="7" as="offset" />
          </mxGeometry>
        </mxCell>
        <mxCell id="3fPp0-dOjymZpEGMUhcJ-514" value="" style="whiteSpace=wrap;html=1;aspect=fixed;imageWidth=10;imageHeight=10;" vertex="1" parent="3fPp0-dOjymZpEGMUhcJ-511">
          <mxGeometry x="65.62803468208092" y="-3.125" width="7.5" height="7.5" as="geometry" />
        </mxCell>
        <mxCell id="3fPp0-dOjymZpEGMUhcJ-536" value="" style="whiteSpace=wrap;html=1;aspect=fixed;imageWidth=10;imageHeight=10;" vertex="1" parent="3fPp0-dOjymZpEGMUhcJ-511">
          <mxGeometry x="88" y="45" width="7.5" height="7.5" as="geometry" />
        </mxCell>
        <mxCell id="3fPp0-dOjymZpEGMUhcJ-541" value="" style="whiteSpace=wrap;html=1;aspect=fixed;imageWidth=10;imageHeight=10;" vertex="1" parent="3fPp0-dOjymZpEGMUhcJ-511">
          <mxGeometry x="16" y="45" width="7.5" height="7.5" as="geometry" />
        </mxCell>
        <mxCell id="3fPp0-dOjymZpEGMUhcJ-515" value="" style="group" vertex="1" connectable="0" parent="1">
          <mxGeometry x="61.87" y="203" width="108.13" height="50" as="geometry" />
        </mxCell>
        <mxCell id="3fPp0-dOjymZpEGMUhcJ-516" value="&lt;font style=&quot;font-size: 9px;&quot;&gt;&lt;b&gt;«component»&lt;br&gt;:Horse&lt;/b&gt;&lt;/font&gt;" style="html=1;dropTarget=0;whiteSpace=wrap;" vertex="1" parent="3fPp0-dOjymZpEGMUhcJ-515">
          <mxGeometry x="3.750173410404624" width="100.00462427745663" height="50" as="geometry" />
        </mxCell>
        <mxCell id="3fPp0-dOjymZpEGMUhcJ-517" value="" style="shape=module;jettyWidth=8;jettyHeight=4;" vertex="1" parent="3fPp0-dOjymZpEGMUhcJ-516">
          <mxGeometry x="1" width="11" height="11" relative="1" as="geometry">
            <mxPoint x="-18" y="7" as="offset" />
          </mxGeometry>
        </mxCell>
        <mxCell id="3fPp0-dOjymZpEGMUhcJ-518" value="" style="whiteSpace=wrap;html=1;aspect=fixed;imageWidth=10;imageHeight=10;" vertex="1" parent="3fPp0-dOjymZpEGMUhcJ-515">
          <mxGeometry x="65.62803468208092" y="-3.125" width="7.5" height="7.5" as="geometry" />
        </mxCell>
        <mxCell id="3fPp0-dOjymZpEGMUhcJ-558" value="" style="whiteSpace=wrap;html=1;aspect=fixed;imageWidth=10;imageHeight=10;" vertex="1" parent="3fPp0-dOjymZpEGMUhcJ-515">
          <mxGeometry x="99" y="26.995000000000005" width="7.5" height="7.5" as="geometry" />
        </mxCell>
        <mxCell id="3fPp0-dOjymZpEGMUhcJ-533" style="edgeStyle=orthogonalEdgeStyle;rounded=0;orthogonalLoop=1;jettySize=auto;html=1;entryX=0.5;entryY=1;entryDx=0;entryDy=0;endArrow=none;endFill=0;" edge="1" parent="1" source="3fPp0-dOjymZpEGMUhcJ-519" target="3fPp0-dOjymZpEGMUhcJ-529">
          <mxGeometry relative="1" as="geometry">
            <Array as="points">
              <mxPoint x="305" y="186" />
              <mxPoint x="304" y="186" />
            </Array>
          </mxGeometry>
        </mxCell>
        <mxCell id="3fPp0-dOjymZpEGMUhcJ-534" style="edgeStyle=orthogonalEdgeStyle;rounded=0;orthogonalLoop=1;jettySize=auto;html=1;entryX=0.5;entryY=0;entryDx=0;entryDy=0;endArrow=none;endFill=0;" edge="1" parent="1" source="3fPp0-dOjymZpEGMUhcJ-519" target="3fPp0-dOjymZpEGMUhcJ-528">
          <mxGeometry relative="1" as="geometry" />
        </mxCell>
        <mxCell id="3fPp0-dOjymZpEGMUhcJ-519" value="" style="shape=providedRequiredInterface;html=1;verticalLabelPosition=bottom;sketch=0;rotation=-90;" vertex="1" parent="1">
          <mxGeometry x="296.5" y="194.75" width="16.5" height="16.5" as="geometry" />
        </mxCell>
        <mxCell id="3fPp0-dOjymZpEGMUhcJ-520" value="" style="group" vertex="1" connectable="0" parent="1">
          <mxGeometry x="170" y="460" width="108.13" height="50" as="geometry" />
        </mxCell>
        <mxCell id="3fPp0-dOjymZpEGMUhcJ-521" value="&lt;font style=&quot;font-size: 9px;&quot;&gt;&lt;b&gt;«component»&lt;br&gt;:Dialogue&lt;/b&gt;&lt;/font&gt;" style="html=1;dropTarget=0;whiteSpace=wrap;" vertex="1" parent="3fPp0-dOjymZpEGMUhcJ-520">
          <mxGeometry x="3.750173410404624" width="100.00462427745663" height="50" as="geometry" />
        </mxCell>
        <mxCell id="3fPp0-dOjymZpEGMUhcJ-522" value="" style="shape=module;jettyWidth=8;jettyHeight=4;" vertex="1" parent="3fPp0-dOjymZpEGMUhcJ-521">
          <mxGeometry x="1" width="11" height="11" relative="1" as="geometry">
            <mxPoint x="-18" y="7" as="offset" />
          </mxGeometry>
        </mxCell>
        <mxCell id="3fPp0-dOjymZpEGMUhcJ-523" value="" style="whiteSpace=wrap;html=1;aspect=fixed;imageWidth=10;imageHeight=10;" vertex="1" parent="3fPp0-dOjymZpEGMUhcJ-520">
          <mxGeometry x="25" y="-5" width="7.5" height="7.5" as="geometry" />
        </mxCell>
        <mxCell id="3fPp0-dOjymZpEGMUhcJ-524" value="" style="group" vertex="1" connectable="0" parent="1">
          <mxGeometry x="280" y="460" width="108.13" height="50" as="geometry" />
        </mxCell>
        <mxCell id="3fPp0-dOjymZpEGMUhcJ-525" value="&lt;font style=&quot;font-size: 9px;&quot;&gt;&lt;b&gt;«component»&lt;br&gt;:Combat&lt;/b&gt;&lt;/font&gt;" style="html=1;dropTarget=0;whiteSpace=wrap;" vertex="1" parent="3fPp0-dOjymZpEGMUhcJ-524">
          <mxGeometry x="3.750173410404624" width="100.00462427745663" height="50" as="geometry" />
        </mxCell>
        <mxCell id="3fPp0-dOjymZpEGMUhcJ-526" value="" style="shape=module;jettyWidth=8;jettyHeight=4;" vertex="1" parent="3fPp0-dOjymZpEGMUhcJ-525">
          <mxGeometry x="1" width="11" height="11" relative="1" as="geometry">
            <mxPoint x="-18" y="7" as="offset" />
          </mxGeometry>
        </mxCell>
        <mxCell id="3fPp0-dOjymZpEGMUhcJ-527" value="" style="whiteSpace=wrap;html=1;aspect=fixed;imageWidth=10;imageHeight=10;" vertex="1" parent="3fPp0-dOjymZpEGMUhcJ-524">
          <mxGeometry x="65.62803468208092" y="-3.125" width="7.5" height="7.5" as="geometry" />
        </mxCell>
        <mxCell id="3fPp0-dOjymZpEGMUhcJ-528" value="" style="whiteSpace=wrap;html=1;aspect=fixed;imageWidth=10;imageHeight=10;" vertex="1" parent="1">
          <mxGeometry x="299.34999999999997" y="224.95" width="10.799999999999999" height="10.799999999999999" as="geometry" />
        </mxCell>
        <mxCell id="3fPp0-dOjymZpEGMUhcJ-537" value="" style="group" vertex="1" connectable="0" parent="1">
          <mxGeometry x="71.93" y="91" width="108.13" height="50" as="geometry" />
        </mxCell>
        <mxCell id="3fPp0-dOjymZpEGMUhcJ-538" value="&lt;font style=&quot;font-size: 9px;&quot;&gt;&lt;b&gt;«component»&lt;br&gt;:HorseMovement&lt;/b&gt;&lt;/font&gt;" style="html=1;dropTarget=0;whiteSpace=wrap;" vertex="1" parent="3fPp0-dOjymZpEGMUhcJ-537">
          <mxGeometry x="3.750173410404624" width="100.00462427745663" height="50" as="geometry" />
        </mxCell>
        <mxCell id="3fPp0-dOjymZpEGMUhcJ-539" value="" style="shape=module;jettyWidth=8;jettyHeight=4;" vertex="1" parent="3fPp0-dOjymZpEGMUhcJ-538">
          <mxGeometry x="1" width="11" height="11" relative="1" as="geometry">
            <mxPoint x="-18" y="7" as="offset" />
          </mxGeometry>
        </mxCell>
        <mxCell id="3fPp0-dOjymZpEGMUhcJ-545" style="edgeStyle=orthogonalEdgeStyle;rounded=0;orthogonalLoop=1;jettySize=auto;html=1;entryX=0.61;entryY=-0.029;entryDx=0;entryDy=0;endArrow=none;endFill=0;entryPerimeter=0;" edge="1" parent="1" source="3fPp0-dOjymZpEGMUhcJ-542" target="3fPp0-dOjymZpEGMUhcJ-523">
          <mxGeometry relative="1" as="geometry">
            <Array as="points">
              <mxPoint x="200" y="455" />
            </Array>
          </mxGeometry>
        </mxCell>
        <mxCell id="3fPp0-dOjymZpEGMUhcJ-542" value="" style="shape=providedRequiredInterface;html=1;verticalLabelPosition=bottom;sketch=0;rotation=-90;" vertex="1" parent="1">
          <mxGeometry x="192" y="428.5" width="15" height="15" as="geometry" />
        </mxCell>
        <mxCell id="3fPp0-dOjymZpEGMUhcJ-551" style="edgeStyle=orthogonalEdgeStyle;rounded=0;orthogonalLoop=1;jettySize=auto;html=1;exitX=1;exitY=0.5;exitDx=0;exitDy=0;exitPerimeter=0;entryX=0.482;entryY=1.107;entryDx=0;entryDy=0;entryPerimeter=0;endArrow=none;endFill=0;" edge="1" parent="1" source="3fPp0-dOjymZpEGMUhcJ-542" target="3fPp0-dOjymZpEGMUhcJ-541">
          <mxGeometry relative="1" as="geometry" />
        </mxCell>
        <mxCell id="3fPp0-dOjymZpEGMUhcJ-552" value="" style="shape=providedRequiredInterface;html=1;verticalLabelPosition=bottom;sketch=0;rotation=-180;" vertex="1" parent="1">
          <mxGeometry x="295" y="425.5" width="15" height="15" as="geometry" />
        </mxCell>
        <mxCell id="3fPp0-dOjymZpEGMUhcJ-553" style="edgeStyle=orthogonalEdgeStyle;rounded=0;orthogonalLoop=1;jettySize=auto;html=1;entryX=1;entryY=0.5;entryDx=0;entryDy=0;entryPerimeter=0;endArrow=none;endFill=0;" edge="1" parent="1" source="3fPp0-dOjymZpEGMUhcJ-536" target="3fPp0-dOjymZpEGMUhcJ-552">
          <mxGeometry relative="1" as="geometry">
            <Array as="points">
              <mxPoint x="272" y="433" />
            </Array>
          </mxGeometry>
        </mxCell>
        <mxCell id="3fPp0-dOjymZpEGMUhcJ-554" style="edgeStyle=orthogonalEdgeStyle;rounded=0;orthogonalLoop=1;jettySize=auto;html=1;entryX=0;entryY=0.5;entryDx=0;entryDy=0;entryPerimeter=0;endArrow=none;endFill=0;" edge="1" parent="1" source="3fPp0-dOjymZpEGMUhcJ-527" target="3fPp0-dOjymZpEGMUhcJ-552">
          <mxGeometry relative="1" as="geometry">
            <Array as="points">
              <mxPoint x="349" y="433" />
            </Array>
          </mxGeometry>
        </mxCell>
        <mxCell id="3fPp0-dOjymZpEGMUhcJ-555" value="" style="shape=providedRequiredInterface;html=1;verticalLabelPosition=bottom;sketch=0;rotation=0;" vertex="1" parent="1">
          <mxGeometry x="192" y="250.53" width="15" height="15" as="geometry" />
        </mxCell>
        <mxCell id="3fPp0-dOjymZpEGMUhcJ-565" style="edgeStyle=orthogonalEdgeStyle;rounded=0;orthogonalLoop=1;jettySize=auto;html=1;entryX=0.5;entryY=0;entryDx=0;entryDy=0;endArrow=none;endFill=0;" edge="1" parent="1" source="3fPp0-dOjymZpEGMUhcJ-556" target="3fPp0-dOjymZpEGMUhcJ-518">
          <mxGeometry relative="1" as="geometry" />
        </mxCell>
        <mxCell id="3fPp0-dOjymZpEGMUhcJ-556" value="" style="shape=providedRequiredInterface;html=1;verticalLabelPosition=bottom;sketch=0;rotation=90;" vertex="1" parent="1">
          <mxGeometry x="124.25" y="165.51999999999998" width="15" height="15" as="geometry" />
        </mxCell>
        <mxCell id="3fPp0-dOjymZpEGMUhcJ-540" value="" style="whiteSpace=wrap;html=1;aspect=fixed;imageWidth=10;imageHeight=10;" vertex="1" parent="1">
          <mxGeometry x="128" y="136" width="7.5" height="7.5" as="geometry" />
        </mxCell>
        <mxCell id="3fPp0-dOjymZpEGMUhcJ-557" value="" style="whiteSpace=wrap;html=1;aspect=fixed;imageWidth=10;imageHeight=10;" vertex="1" parent="1">
          <mxGeometry x="234" y="255.555" width="7.5" height="7.5" as="geometry" />
        </mxCell>
        <mxCell id="3fPp0-dOjymZpEGMUhcJ-568" style="edgeStyle=orthogonalEdgeStyle;rounded=0;orthogonalLoop=1;jettySize=auto;html=1;entryX=0.5;entryY=1;entryDx=0;entryDy=0;endArrow=none;endFill=0;" edge="1" parent="1" source="3fPp0-dOjymZpEGMUhcJ-559" target="3fPp0-dOjymZpEGMUhcJ-566">
          <mxGeometry relative="1" as="geometry">
            <Array as="points">
              <mxPoint x="249" y="310" />
              <mxPoint x="305" y="310" />
            </Array>
          </mxGeometry>
        </mxCell>
        <mxCell id="3fPp0-dOjymZpEGMUhcJ-559" value="" style="shape=providedRequiredInterface;html=1;verticalLabelPosition=bottom;sketch=0;rotation=-90;" vertex="1" parent="1">
          <mxGeometry x="241.5" y="320.5" width="15" height="15" as="geometry" />
        </mxCell>
        <mxCell id="3fPp0-dOjymZpEGMUhcJ-560" style="edgeStyle=orthogonalEdgeStyle;rounded=0;orthogonalLoop=1;jettySize=auto;html=1;entryX=1;entryY=0.5;entryDx=0;entryDy=0;entryPerimeter=0;endArrow=none;endFill=0;" edge="1" parent="1" source="3fPp0-dOjymZpEGMUhcJ-557" target="3fPp0-dOjymZpEGMUhcJ-555">
          <mxGeometry relative="1" as="geometry">
            <Array as="points">
              <mxPoint x="220" y="258" />
              <mxPoint x="220" y="258" />
            </Array>
          </mxGeometry>
        </mxCell>
        <mxCell id="3fPp0-dOjymZpEGMUhcJ-561" style="edgeStyle=orthogonalEdgeStyle;rounded=0;orthogonalLoop=1;jettySize=auto;html=1;entryX=0;entryY=0.5;entryDx=0;entryDy=0;entryPerimeter=0;endArrow=none;endFill=0;" edge="1" parent="1" source="3fPp0-dOjymZpEGMUhcJ-558" target="3fPp0-dOjymZpEGMUhcJ-555">
          <mxGeometry relative="1" as="geometry">
            <Array as="points">
              <mxPoint x="172" y="234" />
              <mxPoint x="172" y="258" />
            </Array>
          </mxGeometry>
        </mxCell>
        <mxCell id="3fPp0-dOjymZpEGMUhcJ-564" style="edgeStyle=orthogonalEdgeStyle;rounded=0;orthogonalLoop=1;jettySize=auto;html=1;entryX=0;entryY=0.5;entryDx=0;entryDy=0;entryPerimeter=0;endArrow=none;endFill=0;" edge="1" parent="1" source="3fPp0-dOjymZpEGMUhcJ-540" target="3fPp0-dOjymZpEGMUhcJ-556">
          <mxGeometry relative="1" as="geometry" />
        </mxCell>
        <mxCell id="3fPp0-dOjymZpEGMUhcJ-566" value="" style="whiteSpace=wrap;html=1;aspect=fixed;imageWidth=10;imageHeight=10;" vertex="1" parent="1">
          <mxGeometry x="300.9980346820809" y="289" width="7.5" height="7.5" as="geometry" />
        </mxCell>
        <mxCell id="3fPp0-dOjymZpEGMUhcJ-567" style="edgeStyle=orthogonalEdgeStyle;rounded=0;orthogonalLoop=1;jettySize=auto;html=1;entryX=0;entryY=0.5;entryDx=0;entryDy=0;entryPerimeter=0;endArrow=none;endFill=0;" edge="1" parent="1" source="3fPp0-dOjymZpEGMUhcJ-514" target="3fPp0-dOjymZpEGMUhcJ-559">
          <mxGeometry relative="1" as="geometry" />
        </mxCell>
        <mxCell id="3fPp0-dOjymZpEGMUhcJ-569" value="&lt;font style=&quot;font-size: 8px;&quot;&gt;manageHealth&lt;/font&gt;" style="text;align=center;fontStyle=1;verticalAlign=middle;spacingLeft=3;spacingRight=3;strokeColor=none;rotatable=0;points=[[0,0.5],[1,0.5]];portConstraint=eastwest;html=1;" vertex="1" parent="1">
          <mxGeometry x="-523.79" y="203" width="80" height="26" as="geometry" />
        </mxCell>
        <mxCell id="3fPp0-dOjymZpEGMUhcJ-570" value="&lt;font style=&quot;font-size: 8px;&quot;&gt;earnSkillPoints&lt;/font&gt;" style="text;align=center;fontStyle=1;verticalAlign=middle;spacingLeft=3;spacingRight=3;strokeColor=none;rotatable=0;points=[[0,0.5],[1,0.5]];portConstraint=eastwest;html=1;" vertex="1" parent="1">
          <mxGeometry x="-353.98" y="305" width="80" height="26" as="geometry" />
        </mxCell>
        <mxCell id="3fPp0-dOjymZpEGMUhcJ-571" value="&lt;span style=&quot;font-size: 8px;&quot;&gt;EarnSpendGold&lt;/span&gt;" style="text;align=center;fontStyle=1;verticalAlign=middle;spacingLeft=3;spacingRight=3;strokeColor=none;rotatable=0;points=[[0,0.5],[1,0.5]];portConstraint=eastwest;html=1;" vertex="1" parent="1">
          <mxGeometry x="-298.12" y="219" width="80" height="26" as="geometry" />
        </mxCell>
        <mxCell id="3fPp0-dOjymZpEGMUhcJ-572" value="&lt;font style=&quot;font-size: 11px;&quot;&gt;handleCharacterActions&lt;/font&gt;" style="text;align=center;fontStyle=1;verticalAlign=middle;spacingLeft=3;spacingRight=3;strokeColor=none;rotatable=0;points=[[0,0.5],[1,0.5]];portConstraint=eastwest;html=1;fontSize=11;" vertex="1" parent="1">
          <mxGeometry x="-251.87" y="78.94999999999999" width="80" height="26" as="geometry" />
        </mxCell>
        <mxCell id="3fPp0-dOjymZpEGMUhcJ-573" value="&lt;font style=&quot;font-size: 9px;&quot;&gt;checkAttackHit&lt;/font&gt;" style="text;align=center;fontStyle=1;verticalAlign=middle;spacingLeft=3;spacingRight=3;strokeColor=none;rotatable=0;points=[[0,0.5],[1,0.5]];portConstraint=eastwest;html=1;" vertex="1" parent="1">
          <mxGeometry x="-139" y="394" width="80" height="26" as="geometry" />
        </mxCell>
        <mxCell id="3fPp0-dOjymZpEGMUhcJ-574" value="&lt;font style=&quot;font-size: 9px;&quot;&gt;checkDodgeCooldown&lt;/font&gt;" style="text;align=center;fontStyle=1;verticalAlign=middle;spacingLeft=3;spacingRight=3;strokeColor=none;rotatable=0;points=[[0,0.5],[1,0.5]];portConstraint=eastwest;html=1;" vertex="1" parent="1">
          <mxGeometry x="-63.51" y="315" width="80" height="26" as="geometry" />
        </mxCell>
        <mxCell id="3fPp0-dOjymZpEGMUhcJ-575" value="&lt;font style=&quot;font-size: 9px;&quot;&gt;engangeDialogue&lt;/font&gt;" style="text;align=center;fontStyle=1;verticalAlign=middle;spacingLeft=3;spacingRight=3;strokeColor=none;rotatable=0;points=[[0,0.5],[1,0.5]];portConstraint=eastwest;html=1;" vertex="1" parent="1">
          <mxGeometry x="-10" y="270.5" width="80" height="26" as="geometry" />
        </mxCell>
        <mxCell id="3fPp0-dOjymZpEGMUhcJ-576" value="&lt;font style=&quot;font-size: 9px;&quot;&gt;manageNPCAction&lt;/font&gt;" style="text;align=center;fontStyle=1;verticalAlign=middle;spacingLeft=3;spacingRight=3;strokeColor=none;rotatable=0;points=[[0,0.5],[1,0.5]];portConstraint=eastwest;html=1;" vertex="1" parent="1">
          <mxGeometry x="320" y="191" width="80" height="26" as="geometry" />
        </mxCell>
        <mxCell id="3fPp0-dOjymZpEGMUhcJ-577" value="&lt;font style=&quot;font-size: 9px;&quot;&gt;checkIfHostile&lt;/font&gt;" style="text;align=center;fontStyle=1;verticalAlign=middle;spacingLeft=3;spacingRight=3;strokeColor=none;rotatable=0;points=[[0,0.5],[1,0.5]];portConstraint=eastwest;html=1;" vertex="1" parent="1">
          <mxGeometry x="116.5" y="423" width="80" height="26" as="geometry" />
        </mxCell>
        <mxCell id="3fPp0-dOjymZpEGMUhcJ-578" value="&lt;font style=&quot;font-size: 9px;&quot;&gt;performAttack&lt;/font&gt;" style="text;align=center;fontStyle=1;verticalAlign=middle;spacingLeft=3;spacingRight=3;strokeColor=none;rotatable=0;points=[[0,0.5],[1,0.5]];portConstraint=eastwest;html=1;" vertex="1" parent="1">
          <mxGeometry x="301" y="402.5" width="80" height="26" as="geometry" />
        </mxCell>
        <mxCell id="3fPp0-dOjymZpEGMUhcJ-579" value="&lt;font style=&quot;font-size: 8px;&quot;&gt;mountHorse&lt;/font&gt;" style="text;align=center;fontStyle=1;verticalAlign=middle;spacingLeft=3;spacingRight=3;strokeColor=none;rotatable=0;points=[[0,0.5],[1,0.5]];portConstraint=eastwest;html=1;" vertex="1" parent="1">
          <mxGeometry x="166" y="217.35" width="80" height="26" as="geometry" />
        </mxCell>
        <mxCell id="3fPp0-dOjymZpEGMUhcJ-581" value="&lt;font style=&quot;font-size: 8px;&quot;&gt;horseRun&lt;/font&gt;" style="text;align=center;fontStyle=1;verticalAlign=middle;spacingLeft=3;spacingRight=3;strokeColor=none;rotatable=0;points=[[0,0.5],[1,0.5]];portConstraint=eastwest;html=1;" vertex="1" parent="1">
          <mxGeometry x="48" y="158" width="80" height="26" as="geometry" />
        </mxCell>
        <mxCell id="3fPp0-dOjymZpEGMUhcJ-582" value="&lt;span style=&quot;font-size: 8px;&quot;&gt;checkProximityRange&lt;/span&gt;" style="text;align=center;fontStyle=1;verticalAlign=middle;spacingLeft=3;spacingRight=3;strokeColor=none;rotatable=0;points=[[0,0.5],[1,0.5]];portConstraint=eastwest;html=1;" vertex="1" parent="1">
          <mxGeometry x="264.75" y="317" width="80" height="26" as="geometry" />
        </mxCell>
        <mxCell id="3fPp0-dOjymZpEGMUhcJ-583" style="edgeStyle=orthogonalEdgeStyle;rounded=0;orthogonalLoop=1;jettySize=auto;html=1;entryX=0;entryY=0.5;entryDx=0;entryDy=0;entryPerimeter=0;endArrow=none;endFill=0;" edge="1" parent="1" source="3fPp0-dOjymZpEGMUhcJ-318" target="3fPp0-dOjymZpEGMUhcJ-487">
          <mxGeometry relative="1" as="geometry" />
        </mxCell>
        <mxCell id="3fPp0-dOjymZpEGMUhcJ-584" style="edgeStyle=orthogonalEdgeStyle;rounded=0;orthogonalLoop=1;jettySize=auto;html=1;entryX=0;entryY=0.5;entryDx=0;entryDy=0;entryPerimeter=0;endArrow=none;endFill=0;" edge="1" parent="1" source="3fPp0-dOjymZpEGMUhcJ-318" target="3fPp0-dOjymZpEGMUhcJ-488">
          <mxGeometry relative="1" as="geometry" />
        </mxCell>
        <mxCell id="3fPp0-dOjymZpEGMUhcJ-585" style="edgeStyle=orthogonalEdgeStyle;rounded=0;orthogonalLoop=1;jettySize=auto;html=1;entryX=0;entryY=0.5;entryDx=0;entryDy=0;entryPerimeter=0;endArrow=none;endFill=0;" edge="1" parent="1" source="3fPp0-dOjymZpEGMUhcJ-318" target="3fPp0-dOjymZpEGMUhcJ-489">
          <mxGeometry relative="1" as="geometry" />
        </mxCell>
        <mxCell id="3fPp0-dOjymZpEGMUhcJ-586" style="edgeStyle=orthogonalEdgeStyle;rounded=0;orthogonalLoop=1;jettySize=auto;html=1;entryX=0;entryY=0.5;entryDx=0;entryDy=0;entryPerimeter=0;endArrow=none;endFill=0;" edge="1" parent="1" source="3fPp0-dOjymZpEGMUhcJ-318" target="3fPp0-dOjymZpEGMUhcJ-490">
          <mxGeometry relative="1" as="geometry" />
        </mxCell>
        <mxCell id="3fPp0-dOjymZpEGMUhcJ-587" style="edgeStyle=orthogonalEdgeStyle;rounded=0;orthogonalLoop=1;jettySize=auto;html=1;entryX=0;entryY=0.5;entryDx=0;entryDy=0;entryPerimeter=0;endArrow=none;endFill=0;" edge="1" parent="1" source="3fPp0-dOjymZpEGMUhcJ-318" target="3fPp0-dOjymZpEGMUhcJ-491">
          <mxGeometry relative="1" as="geometry" />
        </mxCell>
        <mxCell id="3fPp0-dOjymZpEGMUhcJ-588" style="edgeStyle=orthogonalEdgeStyle;rounded=0;orthogonalLoop=1;jettySize=auto;html=1;entryX=0;entryY=0.5;entryDx=0;entryDy=0;entryPerimeter=0;endArrow=none;endFill=0;" edge="1" parent="1" source="3fPp0-dOjymZpEGMUhcJ-318" target="3fPp0-dOjymZpEGMUhcJ-492">
          <mxGeometry relative="1" as="geometry" />
        </mxCell>
        <mxCell id="3fPp0-dOjymZpEGMUhcJ-589" style="edgeStyle=orthogonalEdgeStyle;rounded=0;orthogonalLoop=1;jettySize=auto;html=1;entryX=0;entryY=0.5;entryDx=0;entryDy=0;entryPerimeter=0;endArrow=none;endFill=0;" edge="1" parent="1" source="3fPp0-dOjymZpEGMUhcJ-318" target="3fPp0-dOjymZpEGMUhcJ-493">
          <mxGeometry relative="1" as="geometry" />
        </mxCell>
        <mxCell id="3fPp0-dOjymZpEGMUhcJ-590" style="edgeStyle=orthogonalEdgeStyle;rounded=0;orthogonalLoop=1;jettySize=auto;html=1;entryX=0;entryY=0.5;entryDx=0;entryDy=0;entryPerimeter=0;endArrow=none;endFill=0;" edge="1" parent="1" source="3fPp0-dOjymZpEGMUhcJ-318" target="3fPp0-dOjymZpEGMUhcJ-494">
          <mxGeometry relative="1" as="geometry" />
        </mxCell>
        <mxCell id="3fPp0-dOjymZpEGMUhcJ-594" value="&lt;font style=&quot;font-size: 14px;&quot;&gt;updateView&lt;/font&gt;" style="text;align=center;fontStyle=1;verticalAlign=middle;spacingLeft=3;spacingRight=3;strokeColor=none;rotatable=0;points=[[0,0.5],[1,0.5]];portConstraint=eastwest;html=1;" vertex="1" parent="1">
          <mxGeometry x="480" y="-43" width="80" height="26" as="geometry" />
        </mxCell>
      </root>
    </mxGraphModel>
  </diagram>
</mxfile>
